G04 #@! TF.GenerationSoftware,KiCad,Pcbnew,(5.1.4)-1*
G04 #@! TF.CreationDate,2021-12-30T21:43:56+09:00*
G04 #@! TF.ProjectId,gl65,676c3635-2e6b-4696-9361-645f70636258,rev?*
G04 #@! TF.SameCoordinates,Original*
G04 #@! TF.FileFunction,Soldermask,Top*
G04 #@! TF.FilePolarity,Negative*
%FSLAX46Y46*%
G04 Gerber Fmt 4.6, Leading zero omitted, Abs format (unit mm)*
G04 Created by KiCad (PCBNEW (5.1.4)-1) date 2021-12-30 21:43:56*
%MOMM*%
%LPD*%
G04 APERTURE LIST*
%ADD10C,2.000000*%
%ADD11C,4.000000*%
%ADD12C,3.000000*%
%ADD13C,1.524000*%
%ADD14C,3.050000*%
%ADD15C,1.800000*%
%ADD16O,1.500000X1.500000*%
G04 APERTURE END LIST*
D10*
X104457500Y-85725000D03*
X114617500Y-85725000D03*
D11*
X109537500Y-85725000D03*
D12*
X112077500Y-80645000D03*
X105727500Y-83185000D03*
X43815000Y-26035000D03*
X50165000Y-23495000D03*
D11*
X47625000Y-28575000D03*
D10*
X52705000Y-28575000D03*
X42545000Y-28575000D03*
D12*
X29527500Y-45085000D03*
X35877500Y-42545000D03*
D11*
X33337500Y-47625000D03*
D10*
X38417500Y-47625000D03*
X28257500Y-47625000D03*
D12*
X24765000Y-26035000D03*
X31115000Y-23495000D03*
D11*
X28575000Y-28575000D03*
D10*
X33655000Y-28575000D03*
X23495000Y-28575000D03*
X309245000Y-28575000D03*
X319405000Y-28575000D03*
D11*
X314325000Y-28575000D03*
D12*
X316865000Y-23495000D03*
X310515000Y-26035000D03*
D13*
X49026750Y-35488600D03*
X46486750Y-35488600D03*
X43946750Y-35488600D03*
X41406750Y-35488600D03*
X38866750Y-35488600D03*
X36326750Y-35488600D03*
X33786750Y-35488600D03*
X31246750Y-35488600D03*
X28706750Y-35488600D03*
X26166750Y-35488600D03*
X23626750Y-35488600D03*
X21086750Y-35488600D03*
X21086750Y-20268600D03*
X23626750Y-20268600D03*
X26166750Y-20268600D03*
X28706750Y-20268600D03*
X31246750Y-20268600D03*
X33786750Y-20268600D03*
X36326750Y-20268600D03*
X38866750Y-20268600D03*
X41406750Y-20268600D03*
X43946750Y-20268600D03*
X46486750Y-20268600D03*
X49026750Y-20268600D03*
X51566750Y-20268600D03*
X51566750Y-35488600D03*
D10*
X51070000Y-65980000D03*
X44570000Y-65980000D03*
X309245000Y-104775000D03*
X319405000Y-104775000D03*
D11*
X314325000Y-104775000D03*
D12*
X316865000Y-99695000D03*
X310515000Y-102235000D03*
D10*
X290195000Y-104775000D03*
X300355000Y-104775000D03*
D11*
X295275000Y-104775000D03*
D12*
X297815000Y-99695000D03*
X291465000Y-102235000D03*
D10*
X271145000Y-104775000D03*
X281305000Y-104775000D03*
D11*
X276225000Y-104775000D03*
D12*
X278765000Y-99695000D03*
X272415000Y-102235000D03*
D10*
X240188750Y-104775000D03*
X250348750Y-104775000D03*
D11*
X245268750Y-104775000D03*
D12*
X247808750Y-99695000D03*
X241458750Y-102235000D03*
D10*
X216376250Y-104775000D03*
X226536250Y-104775000D03*
D11*
X221456250Y-104775000D03*
D12*
X223996250Y-99695000D03*
X217646250Y-102235000D03*
D11*
X200028750Y-96535000D03*
X100008750Y-96535000D03*
D14*
X100008750Y-111775000D03*
X200028750Y-111775000D03*
D12*
X152558750Y-99695000D03*
D11*
X150018750Y-104775000D03*
D15*
X155098750Y-104775000D03*
X144938750Y-104775000D03*
D12*
X146208750Y-102235000D03*
D10*
X73501250Y-104775000D03*
X83661250Y-104775000D03*
D11*
X78581250Y-104775000D03*
D12*
X81121250Y-99695000D03*
X74771250Y-102235000D03*
D10*
X49688750Y-104775000D03*
X59848750Y-104775000D03*
D11*
X54768750Y-104775000D03*
D12*
X57308750Y-99695000D03*
X50958750Y-102235000D03*
D10*
X25876250Y-104775000D03*
X36036250Y-104775000D03*
D11*
X30956250Y-104775000D03*
D12*
X33496250Y-99695000D03*
X27146250Y-102235000D03*
D10*
X309245000Y-85725000D03*
X319405000Y-85725000D03*
D11*
X314325000Y-85725000D03*
D12*
X316865000Y-80645000D03*
X310515000Y-83185000D03*
D10*
X290195000Y-85725000D03*
X300355000Y-85725000D03*
D11*
X295275000Y-85725000D03*
D12*
X297815000Y-80645000D03*
X291465000Y-83185000D03*
X265271250Y-83185000D03*
X271621250Y-80645000D03*
D11*
X269081250Y-85725000D03*
D10*
X274161250Y-85725000D03*
X264001250Y-85725000D03*
X237807500Y-85725000D03*
X247967500Y-85725000D03*
D11*
X242887500Y-85725000D03*
D12*
X245427500Y-80645000D03*
X239077500Y-83185000D03*
D10*
X218757500Y-85725000D03*
X228917500Y-85725000D03*
D11*
X223837500Y-85725000D03*
D12*
X226377500Y-80645000D03*
X220027500Y-83185000D03*
D10*
X199707500Y-85725000D03*
X209867500Y-85725000D03*
D11*
X204787500Y-85725000D03*
D12*
X207327500Y-80645000D03*
X200977500Y-83185000D03*
D10*
X180657500Y-85725000D03*
X190817500Y-85725000D03*
D11*
X185737500Y-85725000D03*
D12*
X188277500Y-80645000D03*
X181927500Y-83185000D03*
D10*
X161607500Y-85725000D03*
X171767500Y-85725000D03*
D11*
X166687500Y-85725000D03*
D12*
X169227500Y-80645000D03*
X162877500Y-83185000D03*
D10*
X142557500Y-85725000D03*
X152717500Y-85725000D03*
D11*
X147637500Y-85725000D03*
D12*
X150177500Y-80645000D03*
X143827500Y-83185000D03*
D10*
X123507500Y-85725000D03*
X133667500Y-85725000D03*
D11*
X128587500Y-85725000D03*
D12*
X131127500Y-80645000D03*
X124777500Y-83185000D03*
D10*
X85407500Y-85725000D03*
X95567500Y-85725000D03*
D11*
X90487500Y-85725000D03*
D12*
X93027500Y-80645000D03*
X86677500Y-83185000D03*
D10*
X66357500Y-85725000D03*
X76517500Y-85725000D03*
D11*
X71437500Y-85725000D03*
D12*
X73977500Y-80645000D03*
X67627500Y-83185000D03*
X36671250Y-83185000D03*
D15*
X35401250Y-85725000D03*
X45561250Y-85725000D03*
D11*
X40481250Y-85725000D03*
D12*
X43021250Y-80645000D03*
D14*
X28581250Y-78725000D03*
X52381250Y-78725000D03*
D11*
X52381250Y-93965000D03*
X28581250Y-93965000D03*
D10*
X309245000Y-66675000D03*
X319405000Y-66675000D03*
D11*
X314325000Y-66675000D03*
D12*
X316865000Y-61595000D03*
X310515000Y-64135000D03*
X279558750Y-64135000D03*
D15*
X278288750Y-66675000D03*
X288448750Y-66675000D03*
D11*
X283368750Y-66675000D03*
D12*
X285908750Y-61595000D03*
D14*
X271468750Y-59675000D03*
X295268750Y-59675000D03*
D11*
X295268750Y-74915000D03*
X271468750Y-74915000D03*
D10*
X247332500Y-66675000D03*
X257492500Y-66675000D03*
D11*
X252412500Y-66675000D03*
D12*
X254952500Y-61595000D03*
X248602500Y-64135000D03*
D10*
X228282500Y-66675000D03*
X238442500Y-66675000D03*
D11*
X233362500Y-66675000D03*
D12*
X235902500Y-61595000D03*
X229552500Y-64135000D03*
D10*
X209232500Y-66675000D03*
X219392500Y-66675000D03*
D11*
X214312500Y-66675000D03*
D12*
X216852500Y-61595000D03*
X210502500Y-64135000D03*
D10*
X190182500Y-66675000D03*
X200342500Y-66675000D03*
D11*
X195262500Y-66675000D03*
D12*
X197802500Y-61595000D03*
X191452500Y-64135000D03*
D10*
X171132500Y-66675000D03*
X181292500Y-66675000D03*
D11*
X176212500Y-66675000D03*
D12*
X178752500Y-61595000D03*
X172402500Y-64135000D03*
D10*
X152082500Y-66675000D03*
X162242500Y-66675000D03*
D11*
X157162500Y-66675000D03*
D12*
X159702500Y-61595000D03*
X153352500Y-64135000D03*
D10*
X133032500Y-66675000D03*
X143192500Y-66675000D03*
D11*
X138112500Y-66675000D03*
D12*
X140652500Y-61595000D03*
X134302500Y-64135000D03*
D10*
X113982500Y-66675000D03*
X124142500Y-66675000D03*
D11*
X119062500Y-66675000D03*
D12*
X121602500Y-61595000D03*
X115252500Y-64135000D03*
D10*
X94932500Y-66675000D03*
X105092500Y-66675000D03*
D11*
X100012500Y-66675000D03*
D12*
X102552500Y-61595000D03*
X96202500Y-64135000D03*
D10*
X75882500Y-66675000D03*
X86042500Y-66675000D03*
D11*
X80962500Y-66675000D03*
D12*
X83502500Y-61595000D03*
X77152500Y-64135000D03*
D10*
X56832500Y-66675000D03*
X66992500Y-66675000D03*
D11*
X61912500Y-66675000D03*
D12*
X64452500Y-61595000D03*
X58102500Y-64135000D03*
X31908750Y-64135000D03*
X38258750Y-61595000D03*
D11*
X35718750Y-66675000D03*
D10*
X40798750Y-66675000D03*
X30638750Y-66675000D03*
X309245000Y-47625000D03*
X319405000Y-47625000D03*
D11*
X314325000Y-47625000D03*
D12*
X316865000Y-42545000D03*
X310515000Y-45085000D03*
X286702500Y-45085000D03*
X293052500Y-42545000D03*
D11*
X290512500Y-47625000D03*
D10*
X295592500Y-47625000D03*
X285432500Y-47625000D03*
X261620000Y-47625000D03*
X271780000Y-47625000D03*
D11*
X266700000Y-47625000D03*
D12*
X269240000Y-42545000D03*
X262890000Y-45085000D03*
D10*
X242570000Y-47625000D03*
X252730000Y-47625000D03*
D11*
X247650000Y-47625000D03*
D12*
X250190000Y-42545000D03*
X243840000Y-45085000D03*
D10*
X223520000Y-47625000D03*
X233680000Y-47625000D03*
D11*
X228600000Y-47625000D03*
D12*
X231140000Y-42545000D03*
X224790000Y-45085000D03*
D10*
X204470000Y-47625000D03*
X214630000Y-47625000D03*
D11*
X209550000Y-47625000D03*
D12*
X212090000Y-42545000D03*
X205740000Y-45085000D03*
D10*
X185420000Y-47625000D03*
X195580000Y-47625000D03*
D11*
X190500000Y-47625000D03*
D12*
X193040000Y-42545000D03*
X186690000Y-45085000D03*
D10*
X166370000Y-47625000D03*
X176530000Y-47625000D03*
D11*
X171450000Y-47625000D03*
D12*
X173990000Y-42545000D03*
X167640000Y-45085000D03*
D10*
X147320000Y-47625000D03*
X157480000Y-47625000D03*
D11*
X152400000Y-47625000D03*
D12*
X154940000Y-42545000D03*
X148590000Y-45085000D03*
D10*
X128270000Y-47625000D03*
X138430000Y-47625000D03*
D11*
X133350000Y-47625000D03*
D12*
X135890000Y-42545000D03*
X129540000Y-45085000D03*
D10*
X109220000Y-47625000D03*
X119380000Y-47625000D03*
D11*
X114300000Y-47625000D03*
D12*
X116840000Y-42545000D03*
X110490000Y-45085000D03*
D10*
X90170000Y-47625000D03*
X100330000Y-47625000D03*
D11*
X95250000Y-47625000D03*
D12*
X97790000Y-42545000D03*
X91440000Y-45085000D03*
D10*
X71120000Y-47625000D03*
X81280000Y-47625000D03*
D11*
X76200000Y-47625000D03*
D12*
X78740000Y-42545000D03*
X72390000Y-45085000D03*
D10*
X52070000Y-47625000D03*
X62230000Y-47625000D03*
D11*
X57150000Y-47625000D03*
D12*
X59690000Y-42545000D03*
X53340000Y-45085000D03*
D11*
X273850000Y-36815000D03*
X297650000Y-36815000D03*
D14*
X297650000Y-21575000D03*
X273850000Y-21575000D03*
D12*
X288290000Y-23495000D03*
D11*
X285750000Y-28575000D03*
D15*
X290830000Y-28575000D03*
X280670000Y-28575000D03*
D12*
X281940000Y-26035000D03*
D10*
X252095000Y-28575000D03*
X262255000Y-28575000D03*
D11*
X257175000Y-28575000D03*
D12*
X259715000Y-23495000D03*
X253365000Y-26035000D03*
D10*
X233045000Y-28575000D03*
X243205000Y-28575000D03*
D11*
X238125000Y-28575000D03*
D12*
X240665000Y-23495000D03*
X234315000Y-26035000D03*
D10*
X213995000Y-28575000D03*
X224155000Y-28575000D03*
D11*
X219075000Y-28575000D03*
D12*
X221615000Y-23495000D03*
X215265000Y-26035000D03*
D10*
X194945000Y-28575000D03*
X205105000Y-28575000D03*
D11*
X200025000Y-28575000D03*
D12*
X202565000Y-23495000D03*
X196215000Y-26035000D03*
D10*
X175895000Y-28575000D03*
X186055000Y-28575000D03*
D11*
X180975000Y-28575000D03*
D12*
X183515000Y-23495000D03*
X177165000Y-26035000D03*
D10*
X156845000Y-28575000D03*
X167005000Y-28575000D03*
D11*
X161925000Y-28575000D03*
D12*
X164465000Y-23495000D03*
X158115000Y-26035000D03*
D10*
X137795000Y-28575000D03*
X147955000Y-28575000D03*
D11*
X142875000Y-28575000D03*
D12*
X145415000Y-23495000D03*
X139065000Y-26035000D03*
D10*
X118745000Y-28575000D03*
X128905000Y-28575000D03*
D11*
X123825000Y-28575000D03*
D12*
X126365000Y-23495000D03*
X120015000Y-26035000D03*
D10*
X99695000Y-28575000D03*
X109855000Y-28575000D03*
D11*
X104775000Y-28575000D03*
D12*
X107315000Y-23495000D03*
X100965000Y-26035000D03*
D10*
X80645000Y-28575000D03*
X90805000Y-28575000D03*
D11*
X85725000Y-28575000D03*
D12*
X88265000Y-23495000D03*
X81915000Y-26035000D03*
D10*
X61595000Y-28575000D03*
X71755000Y-28575000D03*
D11*
X66675000Y-28575000D03*
D12*
X69215000Y-23495000D03*
X62865000Y-26035000D03*
D16*
X168950000Y-19100000D03*
X171450000Y-19100000D03*
X173950000Y-19100000D03*
M02*
