M48
; DRILL file {KiCad (5.1.4)-1} date 2021/12/30 21:44:00
; FORMAT={-:-/ absolute / inch / decimal}
; #@! TF.CreationDate,2021-12-30T21:44:00+09:00
; #@! TF.GenerationSoftware,Kicad,Pcbnew,(5.1.4)-1
; #@! TF.FileFunction,Plated,1,2,PTH
FMAT,2
INCH
T1C0.0157
T2C0.0315
T3C0.0320
T4C0.0512
%
G90
G05
T1
X0.8268Y-1.0236
X0.8449Y-4.2555
X0.9055Y-4.0157
X0.9173Y-3.3232
X1.0228Y-2.7417
X1.0236Y-1.7717
X1.1024Y-2.5197
X1.2992Y-3.2677
X1.5735Y-2.1324
X1.7302Y-1.7188
X1.7302Y-2.0648
X1.8302Y-1.72
X1.8302Y-2.0281
X1.8504Y-4.0157
X1.9685Y-1.7717
X2.126Y-2.5197
X2.3228Y-1.0236
X2.3228Y-1.4173
X2.4016Y-1.2205
X2.5197Y-3.2677
X2.5984Y-1.378
X2.7165Y-1.7717
X2.7953Y-4.0157
X2.874Y-2.5197
X3.0315Y-1.4567
X3.0709Y-1.0236
X3.2671Y-3.5754
X3.2677Y-3.2677
X3.4646Y-1.7717
X3.622Y-2.5197
X3.6693Y-1.5118
X3.8189Y-1.0236
X4.0157Y-3.2677
X4.139Y-3.6122
X4.2126Y-1.7717
X4.4094Y-2.5197
X4.5276Y-1.4961
X4.5669Y-1.0236
X4.7638Y-3.2677
X4.9606Y-1.7717
X5.1433Y-1.5472
X5.1575Y-2.5197
X5.315Y-1.0236
X5.5118Y-3.2677
X5.6299Y-4.0157
X5.7087Y-1.7717
X5.9055Y-2.5197
X6.063Y-1.0236
X6.2598Y-3.2677
X6.4567Y-1.7717
X6.6535Y-2.5197
X6.6562Y-0.75
X6.811Y-1.0236
X6.8438Y-0.75
X7.0079Y-3.2677
X7.2047Y-1.7717
X7.4016Y-2.5197
X7.5591Y-1.0236
X7.7559Y-3.2677
X7.9528Y-1.7717
X8.1496Y-2.5197
X8.3465Y-1.0236
X8.4252Y-4.0157
X8.5039Y-3.2677
X8.7008Y-1.7717
X8.8976Y-2.5197
X9.0945Y-1.0236
X9.252Y-3.2677
X9.252Y-3.5433
X9.3701Y-4.0157
X9.4488Y-1.7717
X9.5669Y-2.9528
X9.6457Y-2.5197
X9.8425Y-1.0236
X10.1969Y-1.7717
X10.315Y-3.2677
X10.5906Y-4.0157
X10.8661Y-2.5197
X10.9449Y-1.0236
X10.9843Y-2.9134
X11.1417Y-1.7717
X11.3386Y-3.2677
X11.3386Y-4.0157
X12.0866Y-1.0236
X12.0866Y-1.7717
X12.0866Y-2.5197
X12.0866Y-3.2677
X12.0866Y-4.0157
T3
X0.8302Y-0.798
X0.8302Y-1.3972
X0.9302Y-0.798
X0.9302Y-1.3972
X1.0302Y-0.798
X1.0302Y-1.3972
X1.1302Y-0.798
X1.1302Y-1.3972
X1.2302Y-0.798
X1.2302Y-1.3972
X1.3302Y-0.798
X1.3302Y-1.3972
X1.4302Y-0.798
X1.4302Y-1.3972
X1.5302Y-0.798
X1.5302Y-1.3972
X1.6302Y-0.798
X1.6302Y-1.3972
X1.7302Y-0.798
X1.7302Y-1.3972
X1.8302Y-0.798
X1.8302Y-1.3972
X1.9302Y-0.798
X1.9302Y-1.3972
X2.0302Y-0.798
X2.0302Y-1.3972
T4
X1.7547Y-2.5976
X2.0106Y-2.5976
T2
G00X6.6516Y-0.752
M15
G01X6.6516Y-0.752
M16
G05
G00X6.75Y-0.752
M15
G01X6.75Y-0.752
M16
G05
G00X6.8484Y-0.752
M15
G01X6.8484Y-0.752
M16
G05
T0
M30
