G04 #@! TF.GenerationSoftware,KiCad,Pcbnew,(5.1.4)-1*
G04 #@! TF.CreationDate,2021-12-30T21:43:56+09:00*
G04 #@! TF.ProjectId,gl65,676c3635-2e6b-4696-9361-645f70636258,rev?*
G04 #@! TF.SameCoordinates,Original*
G04 #@! TF.FileFunction,Soldermask,Bot*
G04 #@! TF.FilePolarity,Negative*
%FSLAX46Y46*%
G04 Gerber Fmt 4.6, Leading zero omitted, Abs format (unit mm)*
G04 Created by KiCad (PCBNEW (5.1.4)-1) date 2021-12-30 21:43:56*
%MOMM*%
%LPD*%
G04 APERTURE LIST*
%ADD10R,3.300000X3.000000*%
%ADD11C,2.000000*%
%ADD12C,4.000000*%
%ADD13C,3.000000*%
%ADD14R,3.300000X2.800000*%
%ADD15C,1.524000*%
%ADD16C,3.050000*%
%ADD17C,1.800000*%
%ADD18O,1.500000X1.500000*%
%ADD19R,0.950000X1.300000*%
G04 APERTURE END LIST*
D10*
X115687500Y-80605000D03*
D11*
X104457500Y-85725000D03*
X114617500Y-85725000D03*
D12*
X109537500Y-85725000D03*
D13*
X112077500Y-80645000D03*
X105727500Y-83185000D03*
D10*
X102087500Y-83145000D03*
X40175000Y-25995000D03*
D13*
X43815000Y-26035000D03*
X50165000Y-23495000D03*
D12*
X47625000Y-28575000D03*
D11*
X52705000Y-28575000D03*
X42545000Y-28575000D03*
D14*
X53775000Y-23555000D03*
D10*
X25887500Y-45045000D03*
D13*
X29527500Y-45085000D03*
X35877500Y-42545000D03*
D12*
X33337500Y-47625000D03*
D11*
X38417500Y-47625000D03*
X28257500Y-47625000D03*
D10*
X39487500Y-42505000D03*
X21125000Y-25995000D03*
D13*
X24765000Y-26035000D03*
X31115000Y-23495000D03*
D12*
X28575000Y-28575000D03*
D11*
X33655000Y-28575000D03*
X23495000Y-28575000D03*
D14*
X34725000Y-23555000D03*
D10*
X320475000Y-23455000D03*
D11*
X309245000Y-28575000D03*
X319405000Y-28575000D03*
D12*
X314325000Y-28575000D03*
D13*
X316865000Y-23495000D03*
X310515000Y-26035000D03*
D10*
X306875000Y-25995000D03*
D15*
X49026750Y-35488600D03*
X46486750Y-35488600D03*
X43946750Y-35488600D03*
X41406750Y-35488600D03*
X38866750Y-35488600D03*
X36326750Y-35488600D03*
X33786750Y-35488600D03*
X31246750Y-35488600D03*
X28706750Y-35488600D03*
X26166750Y-35488600D03*
X23626750Y-35488600D03*
X21086750Y-35488600D03*
X21086750Y-20268600D03*
X23626750Y-20268600D03*
X26166750Y-20268600D03*
X28706750Y-20268600D03*
X31246750Y-20268600D03*
X33786750Y-20268600D03*
X36326750Y-20268600D03*
X38866750Y-20268600D03*
X41406750Y-20268600D03*
X43946750Y-20268600D03*
X46486750Y-20268600D03*
X49026750Y-20268600D03*
X51566750Y-20268600D03*
X51566750Y-35488600D03*
D11*
X51070000Y-65980000D03*
X44570000Y-65980000D03*
D10*
X320475000Y-99655000D03*
D11*
X309245000Y-104775000D03*
X319405000Y-104775000D03*
D12*
X314325000Y-104775000D03*
D13*
X316865000Y-99695000D03*
X310515000Y-102235000D03*
D10*
X306875000Y-102195000D03*
X301425000Y-99655000D03*
D11*
X290195000Y-104775000D03*
X300355000Y-104775000D03*
D12*
X295275000Y-104775000D03*
D13*
X297815000Y-99695000D03*
X291465000Y-102235000D03*
D10*
X287825000Y-102195000D03*
X282375000Y-99655000D03*
D11*
X271145000Y-104775000D03*
X281305000Y-104775000D03*
D12*
X276225000Y-104775000D03*
D13*
X278765000Y-99695000D03*
X272415000Y-102235000D03*
D10*
X268775000Y-102195000D03*
X251418750Y-99655000D03*
D11*
X240188750Y-104775000D03*
X250348750Y-104775000D03*
D12*
X245268750Y-104775000D03*
D13*
X247808750Y-99695000D03*
X241458750Y-102235000D03*
D10*
X237818750Y-102195000D03*
X227606250Y-99655000D03*
D11*
X216376250Y-104775000D03*
X226536250Y-104775000D03*
D12*
X221456250Y-104775000D03*
D13*
X223996250Y-99695000D03*
X217646250Y-102235000D03*
D10*
X214006250Y-102195000D03*
D12*
X200028750Y-96535000D03*
X100008750Y-96535000D03*
D16*
X100008750Y-111775000D03*
X200028750Y-111775000D03*
D10*
X142618750Y-102235000D03*
D13*
X152558750Y-99695000D03*
D12*
X150018750Y-104775000D03*
D17*
X155098750Y-104775000D03*
X144938750Y-104775000D03*
D13*
X146208750Y-102235000D03*
D10*
X156118750Y-99695000D03*
X84731250Y-99655000D03*
D11*
X73501250Y-104775000D03*
X83661250Y-104775000D03*
D12*
X78581250Y-104775000D03*
D13*
X81121250Y-99695000D03*
X74771250Y-102235000D03*
D10*
X71131250Y-102195000D03*
X60918750Y-99655000D03*
D11*
X49688750Y-104775000D03*
X59848750Y-104775000D03*
D12*
X54768750Y-104775000D03*
D13*
X57308750Y-99695000D03*
X50958750Y-102235000D03*
D10*
X47318750Y-102195000D03*
X37106250Y-99655000D03*
D11*
X25876250Y-104775000D03*
X36036250Y-104775000D03*
D12*
X30956250Y-104775000D03*
D13*
X33496250Y-99695000D03*
X27146250Y-102235000D03*
D10*
X23506250Y-102195000D03*
X320475000Y-80605000D03*
D11*
X309245000Y-85725000D03*
X319405000Y-85725000D03*
D12*
X314325000Y-85725000D03*
D13*
X316865000Y-80645000D03*
X310515000Y-83185000D03*
D10*
X306875000Y-83145000D03*
X301425000Y-80605000D03*
D11*
X290195000Y-85725000D03*
X300355000Y-85725000D03*
D12*
X295275000Y-85725000D03*
D13*
X297815000Y-80645000D03*
X291465000Y-83185000D03*
D10*
X287825000Y-83145000D03*
X261631250Y-83145000D03*
D13*
X265271250Y-83185000D03*
X271621250Y-80645000D03*
D12*
X269081250Y-85725000D03*
D11*
X274161250Y-85725000D03*
X264001250Y-85725000D03*
D10*
X275231250Y-80605000D03*
X249037500Y-80605000D03*
D11*
X237807500Y-85725000D03*
X247967500Y-85725000D03*
D12*
X242887500Y-85725000D03*
D13*
X245427500Y-80645000D03*
X239077500Y-83185000D03*
D10*
X235437500Y-83145000D03*
X229987500Y-80605000D03*
D11*
X218757500Y-85725000D03*
X228917500Y-85725000D03*
D12*
X223837500Y-85725000D03*
D13*
X226377500Y-80645000D03*
X220027500Y-83185000D03*
D10*
X216387500Y-83145000D03*
X210937500Y-80605000D03*
D11*
X199707500Y-85725000D03*
X209867500Y-85725000D03*
D12*
X204787500Y-85725000D03*
D13*
X207327500Y-80645000D03*
X200977500Y-83185000D03*
D10*
X197337500Y-83145000D03*
X191887500Y-80605000D03*
D11*
X180657500Y-85725000D03*
X190817500Y-85725000D03*
D12*
X185737500Y-85725000D03*
D13*
X188277500Y-80645000D03*
X181927500Y-83185000D03*
D10*
X178287500Y-83145000D03*
X172837500Y-80605000D03*
D11*
X161607500Y-85725000D03*
X171767500Y-85725000D03*
D12*
X166687500Y-85725000D03*
D13*
X169227500Y-80645000D03*
X162877500Y-83185000D03*
D10*
X159237500Y-83145000D03*
X153787500Y-80605000D03*
D11*
X142557500Y-85725000D03*
X152717500Y-85725000D03*
D12*
X147637500Y-85725000D03*
D13*
X150177500Y-80645000D03*
X143827500Y-83185000D03*
D10*
X140187500Y-83145000D03*
X134737500Y-80605000D03*
D11*
X123507500Y-85725000D03*
X133667500Y-85725000D03*
D12*
X128587500Y-85725000D03*
D13*
X131127500Y-80645000D03*
X124777500Y-83185000D03*
D10*
X121137500Y-83145000D03*
X96637500Y-80605000D03*
D11*
X85407500Y-85725000D03*
X95567500Y-85725000D03*
D12*
X90487500Y-85725000D03*
D13*
X93027500Y-80645000D03*
X86677500Y-83185000D03*
D10*
X83037500Y-83145000D03*
X77587500Y-80605000D03*
D11*
X66357500Y-85725000D03*
X76517500Y-85725000D03*
D12*
X71437500Y-85725000D03*
D13*
X73977500Y-80645000D03*
X67627500Y-83185000D03*
D10*
X63987500Y-83145000D03*
X46581250Y-80645000D03*
D13*
X36671250Y-83185000D03*
D17*
X35401250Y-85725000D03*
X45561250Y-85725000D03*
D12*
X40481250Y-85725000D03*
D13*
X43021250Y-80645000D03*
D10*
X33081250Y-83185000D03*
D16*
X28581250Y-78725000D03*
X52381250Y-78725000D03*
D12*
X52381250Y-93965000D03*
X28581250Y-93965000D03*
D10*
X320475000Y-61555000D03*
D11*
X309245000Y-66675000D03*
X319405000Y-66675000D03*
D12*
X314325000Y-66675000D03*
D13*
X316865000Y-61595000D03*
X310515000Y-64135000D03*
D10*
X306875000Y-64095000D03*
X289468750Y-61595000D03*
D13*
X279558750Y-64135000D03*
D17*
X278288750Y-66675000D03*
X288448750Y-66675000D03*
D12*
X283368750Y-66675000D03*
D13*
X285908750Y-61595000D03*
D10*
X275968750Y-64135000D03*
D16*
X271468750Y-59675000D03*
X295268750Y-59675000D03*
D12*
X295268750Y-74915000D03*
X271468750Y-74915000D03*
D10*
X258562500Y-61555000D03*
D11*
X247332500Y-66675000D03*
X257492500Y-66675000D03*
D12*
X252412500Y-66675000D03*
D13*
X254952500Y-61595000D03*
X248602500Y-64135000D03*
D10*
X244962500Y-64095000D03*
X239512500Y-61555000D03*
D11*
X228282500Y-66675000D03*
X238442500Y-66675000D03*
D12*
X233362500Y-66675000D03*
D13*
X235902500Y-61595000D03*
X229552500Y-64135000D03*
D10*
X225912500Y-64095000D03*
X220462500Y-61555000D03*
D11*
X209232500Y-66675000D03*
X219392500Y-66675000D03*
D12*
X214312500Y-66675000D03*
D13*
X216852500Y-61595000D03*
X210502500Y-64135000D03*
D10*
X206862500Y-64095000D03*
X201412500Y-61555000D03*
D11*
X190182500Y-66675000D03*
X200342500Y-66675000D03*
D12*
X195262500Y-66675000D03*
D13*
X197802500Y-61595000D03*
X191452500Y-64135000D03*
D10*
X187812500Y-64095000D03*
X182362500Y-61555000D03*
D11*
X171132500Y-66675000D03*
X181292500Y-66675000D03*
D12*
X176212500Y-66675000D03*
D13*
X178752500Y-61595000D03*
X172402500Y-64135000D03*
D10*
X168762500Y-64095000D03*
X163312500Y-61555000D03*
D11*
X152082500Y-66675000D03*
X162242500Y-66675000D03*
D12*
X157162500Y-66675000D03*
D13*
X159702500Y-61595000D03*
X153352500Y-64135000D03*
D10*
X149712500Y-64095000D03*
X144262500Y-61555000D03*
D11*
X133032500Y-66675000D03*
X143192500Y-66675000D03*
D12*
X138112500Y-66675000D03*
D13*
X140652500Y-61595000D03*
X134302500Y-64135000D03*
D10*
X130662500Y-64095000D03*
X125212500Y-61555000D03*
D11*
X113982500Y-66675000D03*
X124142500Y-66675000D03*
D12*
X119062500Y-66675000D03*
D13*
X121602500Y-61595000D03*
X115252500Y-64135000D03*
D10*
X111612500Y-64095000D03*
X106162500Y-61555000D03*
D11*
X94932500Y-66675000D03*
X105092500Y-66675000D03*
D12*
X100012500Y-66675000D03*
D13*
X102552500Y-61595000D03*
X96202500Y-64135000D03*
D10*
X92562500Y-64095000D03*
X87112500Y-61555000D03*
D11*
X75882500Y-66675000D03*
X86042500Y-66675000D03*
D12*
X80962500Y-66675000D03*
D13*
X83502500Y-61595000D03*
X77152500Y-64135000D03*
D10*
X73512500Y-64095000D03*
X68062500Y-61555000D03*
D11*
X56832500Y-66675000D03*
X66992500Y-66675000D03*
D12*
X61912500Y-66675000D03*
D13*
X64452500Y-61595000D03*
X58102500Y-64135000D03*
D10*
X54462500Y-64095000D03*
X28268750Y-64095000D03*
D13*
X31908750Y-64135000D03*
X38258750Y-61595000D03*
D12*
X35718750Y-66675000D03*
D11*
X40798750Y-66675000D03*
X30638750Y-66675000D03*
D10*
X41868750Y-61555000D03*
X320475000Y-42505000D03*
D11*
X309245000Y-47625000D03*
X319405000Y-47625000D03*
D12*
X314325000Y-47625000D03*
D13*
X316865000Y-42545000D03*
X310515000Y-45085000D03*
D10*
X306875000Y-45045000D03*
X283062500Y-45045000D03*
D13*
X286702500Y-45085000D03*
X293052500Y-42545000D03*
D12*
X290512500Y-47625000D03*
D11*
X295592500Y-47625000D03*
X285432500Y-47625000D03*
D10*
X296662500Y-42505000D03*
X272850000Y-42505000D03*
D11*
X261620000Y-47625000D03*
X271780000Y-47625000D03*
D12*
X266700000Y-47625000D03*
D13*
X269240000Y-42545000D03*
X262890000Y-45085000D03*
D10*
X259250000Y-45045000D03*
X253800000Y-42505000D03*
D11*
X242570000Y-47625000D03*
X252730000Y-47625000D03*
D12*
X247650000Y-47625000D03*
D13*
X250190000Y-42545000D03*
X243840000Y-45085000D03*
D10*
X240200000Y-45045000D03*
X234750000Y-42505000D03*
D11*
X223520000Y-47625000D03*
X233680000Y-47625000D03*
D12*
X228600000Y-47625000D03*
D13*
X231140000Y-42545000D03*
X224790000Y-45085000D03*
D10*
X221150000Y-45045000D03*
X215700000Y-42505000D03*
D11*
X204470000Y-47625000D03*
X214630000Y-47625000D03*
D12*
X209550000Y-47625000D03*
D13*
X212090000Y-42545000D03*
X205740000Y-45085000D03*
D10*
X202100000Y-45045000D03*
X196650000Y-42505000D03*
D11*
X185420000Y-47625000D03*
X195580000Y-47625000D03*
D12*
X190500000Y-47625000D03*
D13*
X193040000Y-42545000D03*
X186690000Y-45085000D03*
D10*
X183050000Y-45045000D03*
X177600000Y-42505000D03*
D11*
X166370000Y-47625000D03*
X176530000Y-47625000D03*
D12*
X171450000Y-47625000D03*
D13*
X173990000Y-42545000D03*
X167640000Y-45085000D03*
D10*
X164000000Y-45045000D03*
X158550000Y-42505000D03*
D11*
X147320000Y-47625000D03*
X157480000Y-47625000D03*
D12*
X152400000Y-47625000D03*
D13*
X154940000Y-42545000D03*
X148590000Y-45085000D03*
D10*
X144950000Y-45045000D03*
X139500000Y-42505000D03*
D11*
X128270000Y-47625000D03*
X138430000Y-47625000D03*
D12*
X133350000Y-47625000D03*
D13*
X135890000Y-42545000D03*
X129540000Y-45085000D03*
D10*
X125900000Y-45045000D03*
X120450000Y-42505000D03*
D11*
X109220000Y-47625000D03*
X119380000Y-47625000D03*
D12*
X114300000Y-47625000D03*
D13*
X116840000Y-42545000D03*
X110490000Y-45085000D03*
D10*
X106850000Y-45045000D03*
X101400000Y-42505000D03*
D11*
X90170000Y-47625000D03*
X100330000Y-47625000D03*
D12*
X95250000Y-47625000D03*
D13*
X97790000Y-42545000D03*
X91440000Y-45085000D03*
D10*
X87800000Y-45045000D03*
X82350000Y-42505000D03*
D11*
X71120000Y-47625000D03*
X81280000Y-47625000D03*
D12*
X76200000Y-47625000D03*
D13*
X78740000Y-42545000D03*
X72390000Y-45085000D03*
D10*
X68750000Y-45045000D03*
X63300000Y-42505000D03*
D11*
X52070000Y-47625000D03*
X62230000Y-47625000D03*
D12*
X57150000Y-47625000D03*
D13*
X59690000Y-42545000D03*
X53340000Y-45085000D03*
D10*
X49700000Y-45045000D03*
D12*
X273850000Y-36815000D03*
X297650000Y-36815000D03*
D16*
X297650000Y-21575000D03*
X273850000Y-21575000D03*
D10*
X278350000Y-26035000D03*
D13*
X288290000Y-23495000D03*
D12*
X285750000Y-28575000D03*
D17*
X290830000Y-28575000D03*
X280670000Y-28575000D03*
D13*
X281940000Y-26035000D03*
D10*
X291850000Y-23495000D03*
X263325000Y-23455000D03*
D11*
X252095000Y-28575000D03*
X262255000Y-28575000D03*
D12*
X257175000Y-28575000D03*
D13*
X259715000Y-23495000D03*
X253365000Y-26035000D03*
D10*
X249725000Y-25995000D03*
X244275000Y-23455000D03*
D11*
X233045000Y-28575000D03*
X243205000Y-28575000D03*
D12*
X238125000Y-28575000D03*
D13*
X240665000Y-23495000D03*
X234315000Y-26035000D03*
D10*
X230675000Y-25995000D03*
X225225000Y-23455000D03*
D11*
X213995000Y-28575000D03*
X224155000Y-28575000D03*
D12*
X219075000Y-28575000D03*
D13*
X221615000Y-23495000D03*
X215265000Y-26035000D03*
D10*
X211625000Y-25995000D03*
X206175000Y-23455000D03*
D11*
X194945000Y-28575000D03*
X205105000Y-28575000D03*
D12*
X200025000Y-28575000D03*
D13*
X202565000Y-23495000D03*
X196215000Y-26035000D03*
D10*
X192575000Y-25995000D03*
X187125000Y-23455000D03*
D11*
X175895000Y-28575000D03*
X186055000Y-28575000D03*
D12*
X180975000Y-28575000D03*
D13*
X183515000Y-23495000D03*
X177165000Y-26035000D03*
D10*
X173525000Y-25995000D03*
X168075000Y-23455000D03*
D11*
X156845000Y-28575000D03*
X167005000Y-28575000D03*
D12*
X161925000Y-28575000D03*
D13*
X164465000Y-23495000D03*
X158115000Y-26035000D03*
D10*
X154475000Y-25995000D03*
X149025000Y-23455000D03*
D11*
X137795000Y-28575000D03*
X147955000Y-28575000D03*
D12*
X142875000Y-28575000D03*
D13*
X145415000Y-23495000D03*
X139065000Y-26035000D03*
D10*
X135425000Y-25995000D03*
X129975000Y-23455000D03*
D11*
X118745000Y-28575000D03*
X128905000Y-28575000D03*
D12*
X123825000Y-28575000D03*
D13*
X126365000Y-23495000D03*
X120015000Y-26035000D03*
D10*
X116375000Y-25995000D03*
X110925000Y-23455000D03*
D11*
X99695000Y-28575000D03*
X109855000Y-28575000D03*
D12*
X104775000Y-28575000D03*
D13*
X107315000Y-23495000D03*
X100965000Y-26035000D03*
D10*
X97325000Y-25995000D03*
X91875000Y-23455000D03*
D11*
X80645000Y-28575000D03*
X90805000Y-28575000D03*
D12*
X85725000Y-28575000D03*
D13*
X88265000Y-23495000D03*
X81915000Y-26035000D03*
D10*
X78275000Y-25995000D03*
X72825000Y-23455000D03*
D11*
X61595000Y-28575000D03*
X71755000Y-28575000D03*
D12*
X66675000Y-28575000D03*
D13*
X69215000Y-23495000D03*
X62865000Y-26035000D03*
D10*
X59225000Y-25995000D03*
D18*
X168950000Y-19100000D03*
X171450000Y-19100000D03*
X173950000Y-19100000D03*
D19*
X321468750Y-111312500D03*
X321468750Y-107762500D03*
X302418750Y-111312500D03*
X302418750Y-107762500D03*
X283368750Y-111312500D03*
X283368750Y-107762500D03*
X252412500Y-111312500D03*
X252412500Y-107762500D03*
X228600000Y-111312500D03*
X228600000Y-107762500D03*
X157162500Y-107762500D03*
X157162500Y-111312500D03*
X85725000Y-107762500D03*
X85725000Y-111312500D03*
X61912500Y-107762500D03*
X61912500Y-111312500D03*
X38706250Y-107762500D03*
X38706250Y-111312500D03*
X321468750Y-92262500D03*
X321468750Y-88712500D03*
X302418750Y-92262500D03*
X302418750Y-88712500D03*
X276225000Y-92262500D03*
X276225000Y-88712500D03*
X250031250Y-92262500D03*
X250031250Y-88712500D03*
X230981250Y-92262500D03*
X230981250Y-88712500D03*
X211931250Y-92262500D03*
X211931250Y-88712500D03*
X192881250Y-92262500D03*
X192881250Y-88712500D03*
X173831250Y-88712500D03*
X173831250Y-92262500D03*
X155387500Y-88712500D03*
X155387500Y-92262500D03*
X135731250Y-88712500D03*
X135731250Y-92262500D03*
X116681250Y-88712500D03*
X116681250Y-92262500D03*
X97631250Y-88712500D03*
X97631250Y-92262500D03*
X78581250Y-88712500D03*
X78581250Y-92262500D03*
X47625000Y-88712500D03*
X47625000Y-92262500D03*
X321468750Y-73212500D03*
X321468750Y-69662500D03*
X290512500Y-73212500D03*
X290512500Y-69662500D03*
X259556250Y-73212500D03*
X259556250Y-69662500D03*
X240506250Y-73212500D03*
X240506250Y-69662500D03*
X221456250Y-73212500D03*
X221456250Y-69662500D03*
X202406250Y-73212500D03*
X202406250Y-69662500D03*
X183356250Y-73212500D03*
X183356250Y-69662500D03*
X164306250Y-69662500D03*
X164306250Y-73212500D03*
X145862500Y-69662500D03*
X145862500Y-73212500D03*
X126206250Y-69662500D03*
X126206250Y-73212500D03*
X107156250Y-69662500D03*
X107156250Y-73212500D03*
X88106250Y-69662500D03*
X88106250Y-73212500D03*
X69056250Y-69662500D03*
X69056250Y-73212500D03*
X42862500Y-69662500D03*
X42862500Y-73212500D03*
X321468750Y-54162500D03*
X321468750Y-50612500D03*
X297656250Y-54162500D03*
X297656250Y-50612500D03*
X273843750Y-54162500D03*
X273843750Y-50612500D03*
X254793750Y-54162500D03*
X254793750Y-50612500D03*
X235743750Y-54162500D03*
X235743750Y-50612500D03*
X216693750Y-54162500D03*
X216693750Y-50612500D03*
X197643750Y-54162500D03*
X197643750Y-50612500D03*
X178000000Y-54162500D03*
X178000000Y-50612500D03*
X159543750Y-50612500D03*
X159543750Y-54162500D03*
X140493750Y-50612500D03*
X140493750Y-54162500D03*
X121443750Y-50612500D03*
X121443750Y-54162500D03*
X102393750Y-50612500D03*
X102393750Y-54162500D03*
X83343750Y-50612500D03*
X83343750Y-54162500D03*
X64293750Y-50612500D03*
X64293750Y-54162500D03*
X39875000Y-50612500D03*
X39875000Y-54162500D03*
X321468750Y-35112500D03*
X321468750Y-31562500D03*
X293000000Y-35112500D03*
X293000000Y-31562500D03*
X264318750Y-35112500D03*
X264318750Y-31562500D03*
X245268750Y-35112500D03*
X245268750Y-31562500D03*
X226218750Y-35112500D03*
X226218750Y-31562500D03*
X207168750Y-35112500D03*
X207168750Y-31562500D03*
X188118750Y-35112500D03*
X188118750Y-31562500D03*
X169068750Y-35112500D03*
X169068750Y-31562500D03*
X150018750Y-31562500D03*
X150018750Y-35112500D03*
X130968750Y-31562500D03*
X130968750Y-35112500D03*
X111918750Y-31562500D03*
X111918750Y-35112500D03*
X92868750Y-31562500D03*
X92868750Y-35112500D03*
X73818750Y-31562500D03*
X73818750Y-35112500D03*
X56000000Y-27000000D03*
X56000000Y-30550000D03*
X35718750Y-28575000D03*
X35718750Y-32125000D03*
M02*
