G04 #@! TF.GenerationSoftware,KiCad,Pcbnew,(5.1.4)-1*
G04 #@! TF.CreationDate,2021-12-30T21:43:56+09:00*
G04 #@! TF.ProjectId,gl65,676c3635-2e6b-4696-9361-645f70636258,rev?*
G04 #@! TF.SameCoordinates,Original*
G04 #@! TF.FileFunction,Copper,L2,Bot*
G04 #@! TF.FilePolarity,Positive*
%FSLAX46Y46*%
G04 Gerber Fmt 4.6, Leading zero omitted, Abs format (unit mm)*
G04 Created by KiCad (PCBNEW (5.1.4)-1) date 2021-12-30 21:43:56*
%MOMM*%
%LPD*%
G04 APERTURE LIST*
%ADD10R,3.300000X3.000000*%
%ADD11R,3.300000X2.800000*%
%ADD12C,1.524000*%
%ADD13C,2.000000*%
%ADD14O,1.500000X1.500000*%
%ADD15R,0.950000X1.300000*%
%ADD16C,0.800000*%
%ADD17C,0.250000*%
%ADD18C,0.500000*%
G04 APERTURE END LIST*
D10*
X115687500Y-80605000D03*
X102087500Y-83145000D03*
X40175000Y-25995000D03*
D11*
X53775000Y-23555000D03*
D10*
X25887500Y-45045000D03*
X39487500Y-42505000D03*
X21125000Y-25995000D03*
D11*
X34725000Y-23555000D03*
D10*
X320475000Y-23455000D03*
X306875000Y-25995000D03*
D12*
X49026750Y-35488600D03*
X46486750Y-35488600D03*
X43946750Y-35488600D03*
X41406750Y-35488600D03*
X38866750Y-35488600D03*
X36326750Y-35488600D03*
X33786750Y-35488600D03*
X31246750Y-35488600D03*
X28706750Y-35488600D03*
X26166750Y-35488600D03*
X23626750Y-35488600D03*
X21086750Y-35488600D03*
X21086750Y-20268600D03*
X23626750Y-20268600D03*
X26166750Y-20268600D03*
X28706750Y-20268600D03*
X31246750Y-20268600D03*
X33786750Y-20268600D03*
X36326750Y-20268600D03*
X38866750Y-20268600D03*
X41406750Y-20268600D03*
X43946750Y-20268600D03*
X46486750Y-20268600D03*
X49026750Y-20268600D03*
X51566750Y-20268600D03*
X51566750Y-35488600D03*
D13*
X51070000Y-65980000D03*
X44570000Y-65980000D03*
D10*
X320475000Y-99655000D03*
X306875000Y-102195000D03*
X301425000Y-99655000D03*
X287825000Y-102195000D03*
X282375000Y-99655000D03*
X268775000Y-102195000D03*
X251418750Y-99655000D03*
X237818750Y-102195000D03*
X227606250Y-99655000D03*
X214006250Y-102195000D03*
X142618750Y-102235000D03*
X156118750Y-99695000D03*
X84731250Y-99655000D03*
X71131250Y-102195000D03*
X60918750Y-99655000D03*
X47318750Y-102195000D03*
X37106250Y-99655000D03*
X23506250Y-102195000D03*
X320475000Y-80605000D03*
X306875000Y-83145000D03*
X301425000Y-80605000D03*
X287825000Y-83145000D03*
X261631250Y-83145000D03*
X275231250Y-80605000D03*
X249037500Y-80605000D03*
X235437500Y-83145000D03*
X229987500Y-80605000D03*
X216387500Y-83145000D03*
X210937500Y-80605000D03*
X197337500Y-83145000D03*
X191887500Y-80605000D03*
X178287500Y-83145000D03*
X172837500Y-80605000D03*
X159237500Y-83145000D03*
X153787500Y-80605000D03*
X140187500Y-83145000D03*
X134737500Y-80605000D03*
X121137500Y-83145000D03*
X96637500Y-80605000D03*
X83037500Y-83145000D03*
X77587500Y-80605000D03*
X63987500Y-83145000D03*
X46581250Y-80645000D03*
X33081250Y-83185000D03*
X320475000Y-61555000D03*
X306875000Y-64095000D03*
X289468750Y-61595000D03*
X275968750Y-64135000D03*
X258562500Y-61555000D03*
X244962500Y-64095000D03*
X239512500Y-61555000D03*
X225912500Y-64095000D03*
X220462500Y-61555000D03*
X206862500Y-64095000D03*
X201412500Y-61555000D03*
X187812500Y-64095000D03*
X182362500Y-61555000D03*
X168762500Y-64095000D03*
X163312500Y-61555000D03*
X149712500Y-64095000D03*
X144262500Y-61555000D03*
X130662500Y-64095000D03*
X125212500Y-61555000D03*
X111612500Y-64095000D03*
X106162500Y-61555000D03*
X92562500Y-64095000D03*
X87112500Y-61555000D03*
X73512500Y-64095000D03*
X68062500Y-61555000D03*
X54462500Y-64095000D03*
X28268750Y-64095000D03*
X41868750Y-61555000D03*
X320475000Y-42505000D03*
X306875000Y-45045000D03*
X283062500Y-45045000D03*
X296662500Y-42505000D03*
X272850000Y-42505000D03*
X259250000Y-45045000D03*
X253800000Y-42505000D03*
X240200000Y-45045000D03*
X234750000Y-42505000D03*
X221150000Y-45045000D03*
X215700000Y-42505000D03*
X202100000Y-45045000D03*
X196650000Y-42505000D03*
X183050000Y-45045000D03*
X177600000Y-42505000D03*
X164000000Y-45045000D03*
X158550000Y-42505000D03*
X144950000Y-45045000D03*
X139500000Y-42505000D03*
X125900000Y-45045000D03*
X120450000Y-42505000D03*
X106850000Y-45045000D03*
X101400000Y-42505000D03*
X87800000Y-45045000D03*
X82350000Y-42505000D03*
X68750000Y-45045000D03*
X63300000Y-42505000D03*
X49700000Y-45045000D03*
X278350000Y-26035000D03*
X291850000Y-23495000D03*
X263325000Y-23455000D03*
X249725000Y-25995000D03*
X244275000Y-23455000D03*
X230675000Y-25995000D03*
X225225000Y-23455000D03*
X211625000Y-25995000D03*
X206175000Y-23455000D03*
X192575000Y-25995000D03*
X187125000Y-23455000D03*
X173525000Y-25995000D03*
X168075000Y-23455000D03*
X154475000Y-25995000D03*
X149025000Y-23455000D03*
X135425000Y-25995000D03*
X129975000Y-23455000D03*
X116375000Y-25995000D03*
X110925000Y-23455000D03*
X97325000Y-25995000D03*
X91875000Y-23455000D03*
X78275000Y-25995000D03*
X72825000Y-23455000D03*
X59225000Y-25995000D03*
D14*
X168950000Y-19100000D03*
X171450000Y-19100000D03*
X173950000Y-19100000D03*
D15*
X321468750Y-111312500D03*
X321468750Y-107762500D03*
X302418750Y-111312500D03*
X302418750Y-107762500D03*
X283368750Y-111312500D03*
X283368750Y-107762500D03*
X252412500Y-111312500D03*
X252412500Y-107762500D03*
X228600000Y-111312500D03*
X228600000Y-107762500D03*
X157162500Y-107762500D03*
X157162500Y-111312500D03*
X85725000Y-107762500D03*
X85725000Y-111312500D03*
X61912500Y-107762500D03*
X61912500Y-111312500D03*
X38706250Y-107762500D03*
X38706250Y-111312500D03*
X321468750Y-92262500D03*
X321468750Y-88712500D03*
X302418750Y-92262500D03*
X302418750Y-88712500D03*
X276225000Y-92262500D03*
X276225000Y-88712500D03*
X250031250Y-92262500D03*
X250031250Y-88712500D03*
X230981250Y-92262500D03*
X230981250Y-88712500D03*
X211931250Y-92262500D03*
X211931250Y-88712500D03*
X192881250Y-92262500D03*
X192881250Y-88712500D03*
X173831250Y-88712500D03*
X173831250Y-92262500D03*
X155387500Y-88712500D03*
X155387500Y-92262500D03*
X135731250Y-88712500D03*
X135731250Y-92262500D03*
X116681250Y-88712500D03*
X116681250Y-92262500D03*
X97631250Y-88712500D03*
X97631250Y-92262500D03*
X78581250Y-88712500D03*
X78581250Y-92262500D03*
X47625000Y-88712500D03*
X47625000Y-92262500D03*
X321468750Y-73212500D03*
X321468750Y-69662500D03*
X290512500Y-73212500D03*
X290512500Y-69662500D03*
X259556250Y-73212500D03*
X259556250Y-69662500D03*
X240506250Y-73212500D03*
X240506250Y-69662500D03*
X221456250Y-73212500D03*
X221456250Y-69662500D03*
X202406250Y-73212500D03*
X202406250Y-69662500D03*
X183356250Y-73212500D03*
X183356250Y-69662500D03*
X164306250Y-69662500D03*
X164306250Y-73212500D03*
X145862500Y-69662500D03*
X145862500Y-73212500D03*
X126206250Y-69662500D03*
X126206250Y-73212500D03*
X107156250Y-69662500D03*
X107156250Y-73212500D03*
X88106250Y-69662500D03*
X88106250Y-73212500D03*
X69056250Y-69662500D03*
X69056250Y-73212500D03*
X42862500Y-69662500D03*
X42862500Y-73212500D03*
X321468750Y-54162500D03*
X321468750Y-50612500D03*
X297656250Y-54162500D03*
X297656250Y-50612500D03*
X273843750Y-54162500D03*
X273843750Y-50612500D03*
X254793750Y-54162500D03*
X254793750Y-50612500D03*
X235743750Y-54162500D03*
X235743750Y-50612500D03*
X216693750Y-54162500D03*
X216693750Y-50612500D03*
X197643750Y-54162500D03*
X197643750Y-50612500D03*
X178000000Y-54162500D03*
X178000000Y-50612500D03*
X159543750Y-50612500D03*
X159543750Y-54162500D03*
X140493750Y-50612500D03*
X140493750Y-54162500D03*
X121443750Y-50612500D03*
X121443750Y-54162500D03*
X102393750Y-50612500D03*
X102393750Y-54162500D03*
X83343750Y-50612500D03*
X83343750Y-54162500D03*
X64293750Y-50612500D03*
X64293750Y-54162500D03*
X39875000Y-50612500D03*
X39875000Y-54162500D03*
X321468750Y-35112500D03*
X321468750Y-31562500D03*
X293000000Y-35112500D03*
X293000000Y-31562500D03*
X264318750Y-35112500D03*
X264318750Y-31562500D03*
X245268750Y-35112500D03*
X245268750Y-31562500D03*
X226218750Y-35112500D03*
X226218750Y-31562500D03*
X207168750Y-35112500D03*
X207168750Y-31562500D03*
X188118750Y-35112500D03*
X188118750Y-31562500D03*
X169068750Y-35112500D03*
X169068750Y-31562500D03*
X150018750Y-31562500D03*
X150018750Y-35112500D03*
X130968750Y-31562500D03*
X130968750Y-35112500D03*
X111918750Y-31562500D03*
X111918750Y-35112500D03*
X92868750Y-31562500D03*
X92868750Y-35112500D03*
X73818750Y-31562500D03*
X73818750Y-35112500D03*
X56000000Y-27000000D03*
X56000000Y-30550000D03*
X35718750Y-28575000D03*
X35718750Y-32125000D03*
D16*
X61000000Y-31000000D03*
X66000000Y-35000000D03*
X39967500Y-54162500D03*
X25980000Y-69640000D03*
X23300000Y-84410000D03*
X21460000Y-108090000D03*
X173831250Y-19050000D03*
X169068750Y-19050000D03*
X46486750Y-43686750D03*
X46486750Y-51513250D03*
X23000000Y-102000000D03*
X178000000Y-83000000D03*
X33000000Y-83000000D03*
X28000000Y-64000000D03*
X169000000Y-64000000D03*
X164000000Y-45000000D03*
X26000000Y-45000000D03*
X154000000Y-26000000D03*
X21000000Y-26000000D03*
X47000000Y-102000000D03*
X197000000Y-83000000D03*
X64000000Y-83000000D03*
X54000000Y-64000000D03*
X188000000Y-64000000D03*
X50000000Y-45000000D03*
X183000000Y-45000000D03*
X173000000Y-26000000D03*
X59000000Y-26000000D03*
X71000000Y-102000000D03*
X83000000Y-83000000D03*
X73000000Y-64000000D03*
X69000000Y-45000000D03*
X214000000Y-102000000D03*
X216000000Y-83000000D03*
X207000000Y-64000000D03*
X202000000Y-45000000D03*
X192000000Y-26000000D03*
X82985000Y-90815000D03*
X59000000Y-36000000D03*
X102000000Y-83000000D03*
X92000000Y-64000000D03*
X88000000Y-45000000D03*
X78000000Y-26000000D03*
X238000000Y-102000000D03*
X235000000Y-83000000D03*
X226000000Y-64000000D03*
X221000000Y-45000000D03*
X212000000Y-26000000D03*
X105130000Y-91750000D03*
X235000000Y-90000000D03*
X77000000Y-37000000D03*
X121000000Y-83000000D03*
X112000000Y-64000000D03*
X107000000Y-45000000D03*
X97000000Y-26000000D03*
X262000000Y-83000000D03*
X245000000Y-64000000D03*
X240000000Y-45000000D03*
X231000000Y-26000000D03*
X243000000Y-75000000D03*
X93200020Y-38400020D03*
X143000000Y-102000000D03*
X140000000Y-83000000D03*
X131000000Y-64000000D03*
X126000000Y-45000000D03*
X116000000Y-26000000D03*
X269000000Y-102000000D03*
X276000000Y-64000000D03*
X259000000Y-45000000D03*
X250000000Y-26000000D03*
X279000000Y-74000000D03*
X115000000Y-38000000D03*
X159000000Y-83000000D03*
X150000000Y-64000000D03*
X145000000Y-45000000D03*
X135000000Y-26000000D03*
X288000000Y-102000000D03*
X288000000Y-83000000D03*
X283000000Y-45000000D03*
X278000000Y-26000000D03*
X130640040Y-39300040D03*
X307000000Y-102000000D03*
X307000000Y-83000000D03*
X307000000Y-64000000D03*
X307000000Y-45000000D03*
X307000000Y-26000000D03*
X43946750Y-43656750D03*
X43946750Y-52446750D03*
D17*
X35718750Y-28400000D02*
X35718750Y-28575000D01*
X34275000Y-26956250D02*
X35718750Y-28400000D01*
X34275000Y-23455000D02*
X34275000Y-26956250D01*
X294887500Y-35112500D02*
X293000000Y-35112500D01*
X296000000Y-34000000D02*
X294887500Y-35112500D01*
X299000000Y-34000000D02*
X296000000Y-34000000D01*
X321468750Y-35112500D02*
X300112500Y-35112500D01*
X300112500Y-35112500D02*
X299000000Y-34000000D01*
X73818750Y-35112500D02*
X92868750Y-35112500D01*
X92868750Y-35112500D02*
X111918750Y-35112500D01*
X111918750Y-35112500D02*
X130968750Y-35112500D01*
X130968750Y-35112500D02*
X150018750Y-35112500D01*
X150743750Y-35112500D02*
X169068750Y-35112500D01*
X150018750Y-35112500D02*
X150743750Y-35112500D01*
X169068750Y-35112500D02*
X188118750Y-35112500D01*
X188118750Y-35112500D02*
X207168750Y-35112500D01*
X207893750Y-35112500D02*
X226218750Y-35112500D01*
X207168750Y-35112500D02*
X207893750Y-35112500D01*
X226943750Y-35112500D02*
X245268750Y-35112500D01*
X226218750Y-35112500D02*
X226943750Y-35112500D01*
X245993750Y-35112500D02*
X264318750Y-35112500D01*
X245268750Y-35112500D02*
X245993750Y-35112500D01*
X264318750Y-35112500D02*
X270887500Y-35112500D01*
X270887500Y-35112500D02*
X272000000Y-34000000D01*
X272000000Y-34000000D02*
X276000000Y-34000000D01*
X277112500Y-35112500D02*
X293000000Y-35112500D01*
X276000000Y-34000000D02*
X277112500Y-35112500D01*
X38104751Y-28838999D02*
X35718750Y-31225000D01*
X35718750Y-31225000D02*
X35718750Y-32125000D01*
X38104751Y-23531659D02*
X38104751Y-28838999D01*
X38866750Y-22769660D02*
X38104751Y-23531659D01*
X38866750Y-20268600D02*
X38866750Y-22769660D01*
X56725000Y-30550000D02*
X57175000Y-31000000D01*
X56000000Y-30550000D02*
X56725000Y-30550000D01*
X57175000Y-31000000D02*
X61000000Y-31000000D01*
X61000000Y-31000000D02*
X61000000Y-31000000D01*
X73706250Y-35000000D02*
X73818750Y-35112500D01*
X66000000Y-35000000D02*
X73706250Y-35000000D01*
X40165753Y-30900001D02*
X38104751Y-28838999D01*
X54924999Y-30900001D02*
X40165753Y-30900001D01*
X55275000Y-30550000D02*
X54924999Y-30900001D01*
X56000000Y-30550000D02*
X55275000Y-30550000D01*
X56000000Y-26825000D02*
X56000000Y-27000000D01*
X53325000Y-24150000D02*
X56000000Y-26825000D01*
X53325000Y-23455000D02*
X53325000Y-24150000D01*
X72375000Y-23455000D02*
X72375000Y-26375000D01*
X73818750Y-27818750D02*
X73818750Y-31562500D01*
X72375000Y-26375000D02*
X73818750Y-27818750D01*
X91425000Y-23455000D02*
X91425000Y-26425000D01*
X92868750Y-27868750D02*
X92868750Y-31562500D01*
X91425000Y-26425000D02*
X92868750Y-27868750D01*
X110475000Y-23455000D02*
X110475000Y-25475000D01*
X111918750Y-26918750D02*
X111918750Y-31562500D01*
X110475000Y-25475000D02*
X111918750Y-26918750D01*
X129525000Y-23455000D02*
X129525000Y-25525000D01*
X130968750Y-26968750D02*
X130968750Y-31562500D01*
X129525000Y-25525000D02*
X130968750Y-26968750D01*
X148575000Y-23455000D02*
X148575000Y-25575000D01*
X150018750Y-27018750D02*
X150018750Y-31562500D01*
X148575000Y-25575000D02*
X150018750Y-27018750D01*
X167625000Y-23455000D02*
X167625000Y-25625000D01*
X169068750Y-27068750D02*
X169068750Y-31562500D01*
X167625000Y-25625000D02*
X169068750Y-27068750D01*
X186675000Y-23455000D02*
X186675000Y-25675000D01*
X188118750Y-27118750D02*
X188118750Y-31562500D01*
X186675000Y-25675000D02*
X188118750Y-27118750D01*
X205725000Y-23455000D02*
X205725000Y-25725000D01*
X207168750Y-27168750D02*
X207168750Y-31562500D01*
X205725000Y-25725000D02*
X207168750Y-27168750D01*
X224775000Y-23455000D02*
X224775000Y-25775000D01*
X226218750Y-27218750D02*
X226218750Y-31562500D01*
X224775000Y-25775000D02*
X226218750Y-27218750D01*
X243825000Y-23455000D02*
X243825000Y-25825000D01*
X245268750Y-27268750D02*
X245268750Y-31562500D01*
X243825000Y-25825000D02*
X245268750Y-27268750D01*
X262875000Y-23455000D02*
X262875000Y-25875000D01*
X264318750Y-27318750D02*
X264318750Y-31562500D01*
X262875000Y-25875000D02*
X264318750Y-27318750D01*
X291350000Y-23495000D02*
X291350000Y-25650000D01*
X293000000Y-27300000D02*
X293000000Y-31562500D01*
X291350000Y-25650000D02*
X293000000Y-27300000D01*
X320025000Y-23455000D02*
X320025000Y-25975000D01*
X321468750Y-27418750D02*
X321468750Y-31562500D01*
X320025000Y-25975000D02*
X321468750Y-27418750D01*
X39037500Y-42505000D02*
X39037500Y-45037500D01*
X39875000Y-45875000D02*
X39875000Y-50612500D01*
X39037500Y-45037500D02*
X39875000Y-45875000D01*
X321468750Y-54162500D02*
X297656250Y-54162500D01*
X297656250Y-54162500D02*
X273843750Y-54162500D01*
X273118750Y-54162500D02*
X254793750Y-54162500D01*
X273843750Y-54162500D02*
X273118750Y-54162500D01*
X254068750Y-54162500D02*
X235743750Y-54162500D01*
X254793750Y-54162500D02*
X254068750Y-54162500D01*
X235018750Y-54162500D02*
X216693750Y-54162500D01*
X235743750Y-54162500D02*
X235018750Y-54162500D01*
X216693750Y-54162500D02*
X197643750Y-54162500D01*
X197643750Y-54162500D02*
X178000000Y-54162500D01*
X178000000Y-54162500D02*
X159543750Y-54162500D01*
X159543750Y-54162500D02*
X140493750Y-54162500D01*
X140493750Y-54162500D02*
X121443750Y-54162500D01*
X121443750Y-54162500D02*
X102393750Y-54162500D01*
X102393750Y-54162500D02*
X83343750Y-54162500D01*
X83343750Y-54162500D02*
X64293750Y-54162500D01*
X64293750Y-54162500D02*
X39967500Y-54162500D01*
X36326750Y-20268600D02*
X36326750Y-20673250D01*
X39967500Y-54162500D02*
X39875000Y-54162500D01*
X63568750Y-49712500D02*
X64293750Y-50437500D01*
X62850000Y-44850000D02*
X63568749Y-45568749D01*
X62850000Y-42505000D02*
X62850000Y-44850000D01*
X64293750Y-50437500D02*
X64293750Y-50612500D01*
X63568749Y-45568749D02*
X63568750Y-49712500D01*
X81900000Y-42505000D02*
X81900000Y-44900000D01*
X83343750Y-46343750D02*
X83343750Y-50612500D01*
X81900000Y-44900000D02*
X83343750Y-46343750D01*
X100950000Y-42505000D02*
X100950000Y-44950000D01*
X102393750Y-46393750D02*
X102393750Y-50612500D01*
X100950000Y-44950000D02*
X102393750Y-46393750D01*
X121443750Y-46443750D02*
X121443750Y-50612500D01*
X120000000Y-42505000D02*
X120000000Y-45000000D01*
X120000000Y-45000000D02*
X121443750Y-46443750D01*
X140493750Y-46493750D02*
X140493750Y-50612500D01*
X139050000Y-42505000D02*
X139050000Y-45050000D01*
X139050000Y-45050000D02*
X140493750Y-46493750D01*
X159543750Y-46343750D02*
X159543750Y-50612500D01*
X158100000Y-42505000D02*
X158100000Y-44900000D01*
X158100000Y-44900000D02*
X159543750Y-46343750D01*
X177150000Y-42505000D02*
X177150000Y-44850000D01*
X178000000Y-45700000D02*
X178000000Y-50612500D01*
X177150000Y-44850000D02*
X178000000Y-45700000D01*
X197643750Y-46643750D02*
X197643750Y-50612500D01*
X196200000Y-42505000D02*
X196200000Y-45200000D01*
X196200000Y-45200000D02*
X197643750Y-46643750D01*
X216693750Y-47193750D02*
X216693750Y-50612500D01*
X215250000Y-42505000D02*
X215250000Y-45750000D01*
X215250000Y-45750000D02*
X216693750Y-47193750D01*
X235743750Y-46743750D02*
X235743750Y-50612500D01*
X234300000Y-42505000D02*
X234300000Y-45300000D01*
X234300000Y-45300000D02*
X235743750Y-46743750D01*
X254793750Y-47093750D02*
X254793750Y-50612500D01*
X253350000Y-42505000D02*
X253350000Y-45650000D01*
X253350000Y-45650000D02*
X254793750Y-47093750D01*
X273843750Y-47043750D02*
X273843750Y-50612500D01*
X272400000Y-42505000D02*
X272400000Y-45600000D01*
X272400000Y-45600000D02*
X273843750Y-47043750D01*
X297656250Y-46231250D02*
X297656250Y-50612500D01*
X296212500Y-42505000D02*
X296212500Y-44787500D01*
X296212500Y-44787500D02*
X297656250Y-46231250D01*
X321468750Y-46418750D02*
X321468750Y-50612500D01*
X320025000Y-42505000D02*
X320025000Y-44975000D01*
X320025000Y-44975000D02*
X321468750Y-46418750D01*
X42862500Y-65862500D02*
X42862500Y-69662500D01*
X41418750Y-61555000D02*
X41418750Y-64418750D01*
X41418750Y-64418750D02*
X42862500Y-65862500D01*
X42862500Y-73212500D02*
X69056250Y-73212500D01*
X69056250Y-73212500D02*
X88106250Y-73212500D01*
X88831250Y-73212500D02*
X107156250Y-73212500D01*
X88106250Y-73212500D02*
X88831250Y-73212500D01*
X107881250Y-73212500D02*
X126206250Y-73212500D01*
X107156250Y-73212500D02*
X107881250Y-73212500D01*
X126931250Y-73212500D02*
X145862500Y-73212500D01*
X126206250Y-73212500D02*
X126931250Y-73212500D01*
X145862500Y-73212500D02*
X164306250Y-73212500D01*
X164306250Y-73212500D02*
X183356250Y-73212500D01*
X183356250Y-73212500D02*
X202406250Y-73212500D01*
X202406250Y-73212500D02*
X221456250Y-73212500D01*
X221456250Y-73212500D02*
X240506250Y-73212500D01*
X240506250Y-73212500D02*
X259556250Y-73212500D01*
X274212500Y-73212500D02*
X290512500Y-73212500D01*
X273000000Y-72000000D02*
X274212500Y-73212500D01*
X270425000Y-72000000D02*
X273000000Y-72000000D01*
X259556250Y-73212500D02*
X269212500Y-73212500D01*
X269212500Y-73212500D02*
X270425000Y-72000000D01*
X299212500Y-73212500D02*
X321468750Y-73212500D01*
X298000000Y-72000000D02*
X299212500Y-73212500D01*
X294000000Y-72000000D02*
X298000000Y-72000000D01*
X290512500Y-73212500D02*
X292787500Y-73212500D01*
X292787500Y-73212500D02*
X294000000Y-72000000D01*
X33786750Y-20268600D02*
X33731400Y-20268600D01*
X33786750Y-20268600D02*
X33786750Y-20786750D01*
X38815248Y-73212500D02*
X35242748Y-69640000D01*
X42862500Y-73212500D02*
X38815248Y-73212500D01*
X35242748Y-69640000D02*
X25980000Y-69640000D01*
X25980000Y-69640000D02*
X25960000Y-69640000D01*
X67612500Y-61555000D02*
X67612500Y-64612500D01*
X69056250Y-66056250D02*
X69056250Y-69662500D01*
X67612500Y-64612500D02*
X69056250Y-66056250D01*
X86662500Y-61555000D02*
X86662500Y-64662500D01*
X88106250Y-66106250D02*
X88106250Y-69662500D01*
X86662500Y-64662500D02*
X88106250Y-66106250D01*
X105712500Y-61555000D02*
X105712500Y-64712500D01*
X107156250Y-66156250D02*
X107156250Y-69662500D01*
X105712500Y-64712500D02*
X107156250Y-66156250D01*
X126206250Y-66206250D02*
X126206250Y-69662500D01*
X124762500Y-61555000D02*
X124762500Y-64762500D01*
X124762500Y-64762500D02*
X126206250Y-66206250D01*
X145862500Y-66862500D02*
X145862500Y-69662500D01*
X143812500Y-61555000D02*
X143812500Y-64812500D01*
X143812500Y-64812500D02*
X145862500Y-66862500D01*
X164306250Y-66306250D02*
X164306250Y-69662500D01*
X162862500Y-61555000D02*
X162862500Y-64862500D01*
X162862500Y-64862500D02*
X164306250Y-66306250D01*
X183356250Y-65356250D02*
X183356250Y-69662500D01*
X181912500Y-61555000D02*
X181912500Y-63912500D01*
X181912500Y-63912500D02*
X183356250Y-65356250D01*
X202406250Y-66406250D02*
X202406250Y-69662500D01*
X200962500Y-61555000D02*
X200962500Y-64962500D01*
X200962500Y-64962500D02*
X202406250Y-66406250D01*
X221456250Y-65431250D02*
X221456250Y-69662500D01*
X220012500Y-61555000D02*
X220012500Y-63987500D01*
X220012500Y-63987500D02*
X221456250Y-65431250D01*
X240506250Y-66381250D02*
X240506250Y-69662500D01*
X239062500Y-61555000D02*
X239062500Y-64937500D01*
X239062500Y-64937500D02*
X240506250Y-66381250D01*
X259556250Y-65331250D02*
X259556250Y-69662500D01*
X258112500Y-61555000D02*
X258112500Y-63887500D01*
X258112500Y-63887500D02*
X259556250Y-65331250D01*
X290512500Y-65512500D02*
X290512500Y-69662500D01*
X288968750Y-61595000D02*
X288968750Y-63968750D01*
X288968750Y-63968750D02*
X290512500Y-65512500D01*
X320025000Y-61555000D02*
X320025000Y-63975000D01*
X321468750Y-65418750D02*
X321468750Y-69662500D01*
X320025000Y-63975000D02*
X321468750Y-65418750D01*
X46081250Y-80645000D02*
X46081250Y-83081250D01*
X47625000Y-84625000D02*
X47625000Y-88712500D01*
X46081250Y-83081250D02*
X47625000Y-84625000D01*
X321468750Y-92262500D02*
X302418750Y-92262500D01*
X302418750Y-92262500D02*
X276225000Y-92262500D01*
X276225000Y-92262500D02*
X250031250Y-92262500D01*
X250031250Y-92262500D02*
X230981250Y-92262500D01*
X230256250Y-92262500D02*
X211931250Y-92262500D01*
X230981250Y-92262500D02*
X230256250Y-92262500D01*
X211206250Y-92262500D02*
X192881250Y-92262500D01*
X211931250Y-92262500D02*
X211206250Y-92262500D01*
X192156250Y-92262500D02*
X173831250Y-92262500D01*
X192881250Y-92262500D02*
X192156250Y-92262500D01*
X173106250Y-92262500D02*
X155387500Y-92262500D01*
X173831250Y-92262500D02*
X173106250Y-92262500D01*
X154662500Y-92262500D02*
X135731250Y-92262500D01*
X155387500Y-92262500D02*
X154662500Y-92262500D01*
X135006250Y-92262500D02*
X116681250Y-92262500D01*
X135731250Y-92262500D02*
X135006250Y-92262500D01*
X97631250Y-92262500D02*
X78581250Y-92262500D01*
X55262500Y-92262500D02*
X54000000Y-91000000D01*
X78581250Y-92262500D02*
X55262500Y-92262500D01*
X54000000Y-91000000D02*
X51000000Y-91000000D01*
X51000000Y-91000000D02*
X49737500Y-92262500D01*
X49737500Y-92262500D02*
X47625000Y-92262500D01*
X31152500Y-92262500D02*
X23300000Y-84410000D01*
X47625000Y-92262500D02*
X31152500Y-92262500D01*
X105690502Y-92262500D02*
X116681250Y-92262500D01*
X105478001Y-92475001D02*
X105690502Y-92262500D01*
X104781999Y-92475001D02*
X105478001Y-92475001D01*
X104569498Y-92262500D02*
X104781999Y-92475001D01*
X97631250Y-92262500D02*
X104569498Y-92262500D01*
X77137500Y-80605000D02*
X77137500Y-83862500D01*
X78581250Y-85306250D02*
X78581250Y-88712500D01*
X77137500Y-83862500D02*
X78581250Y-85306250D01*
X96187500Y-80605000D02*
X96187500Y-83812500D01*
X97631250Y-85256250D02*
X97631250Y-88712500D01*
X96187500Y-83812500D02*
X97631250Y-85256250D01*
X115237500Y-80605000D02*
X115237500Y-83762500D01*
X116681250Y-85206250D02*
X116681250Y-88712500D01*
X115237500Y-83762500D02*
X116681250Y-85206250D01*
X134287500Y-80605000D02*
X135731250Y-82048750D01*
X135731250Y-87812500D02*
X135731250Y-88712500D01*
X135731250Y-82048750D02*
X135731250Y-87812500D01*
X153337500Y-80605000D02*
X153337500Y-83337500D01*
X155387500Y-85387500D02*
X155387500Y-88712500D01*
X153337500Y-83337500D02*
X155387500Y-85387500D01*
X172387500Y-80605000D02*
X172387500Y-83387500D01*
X173831250Y-84831250D02*
X173831250Y-88712500D01*
X172387500Y-83387500D02*
X173831250Y-84831250D01*
X191437500Y-80605000D02*
X191437500Y-83562500D01*
X192881250Y-85006250D02*
X192881250Y-88712500D01*
X191437500Y-83562500D02*
X192881250Y-85006250D01*
X210487500Y-80605000D02*
X210487500Y-83487500D01*
X211931250Y-84931250D02*
X211931250Y-88712500D01*
X210487500Y-83487500D02*
X211931250Y-84931250D01*
X229537500Y-80605000D02*
X229537500Y-83537500D01*
X230981250Y-84981250D02*
X230981250Y-88712500D01*
X229537500Y-83537500D02*
X230981250Y-84981250D01*
X248587500Y-80605000D02*
X248587500Y-83587500D01*
X250031250Y-85031250D02*
X250031250Y-88712500D01*
X248587500Y-83587500D02*
X250031250Y-85031250D01*
X274781250Y-80605000D02*
X274781250Y-83781250D01*
X276225000Y-85225000D02*
X276225000Y-88712500D01*
X274781250Y-83781250D02*
X276225000Y-85225000D01*
X300975000Y-80605000D02*
X300975000Y-83975000D01*
X302418750Y-85418750D02*
X302418750Y-88712500D01*
X300975000Y-83975000D02*
X302418750Y-85418750D01*
X320025000Y-80605000D02*
X320025000Y-83975000D01*
X321468750Y-85418750D02*
X321468750Y-88712500D01*
X320025000Y-83975000D02*
X321468750Y-85418750D01*
X36656250Y-99655000D02*
X36656250Y-102656250D01*
X38706250Y-104706250D02*
X38706250Y-107762500D01*
X36656250Y-102656250D02*
X38706250Y-104706250D01*
X39431250Y-111312500D02*
X61912500Y-111312500D01*
X38706250Y-111312500D02*
X39431250Y-111312500D01*
X61912500Y-111312500D02*
X85725000Y-111312500D01*
X86450000Y-111312500D02*
X86762500Y-111000000D01*
X85725000Y-111312500D02*
X86450000Y-111312500D01*
X86762500Y-111000000D02*
X97000000Y-111000000D01*
X97000000Y-111000000D02*
X99000000Y-109000000D01*
X99000000Y-109000000D02*
X101000000Y-109000000D01*
X103312500Y-111312500D02*
X157162500Y-111312500D01*
X101000000Y-109000000D02*
X103312500Y-111312500D01*
X196687500Y-111312500D02*
X157162500Y-111312500D01*
X199000000Y-109000000D02*
X196687500Y-111312500D01*
X201000000Y-109000000D02*
X199000000Y-109000000D01*
X228600000Y-111312500D02*
X203312500Y-111312500D01*
X203312500Y-111312500D02*
X201000000Y-109000000D01*
X228600000Y-111312500D02*
X252412500Y-111312500D01*
X252412500Y-111312500D02*
X283368750Y-111312500D01*
X283368750Y-111312500D02*
X302418750Y-111312500D01*
X302418750Y-111312500D02*
X321468750Y-111312500D01*
X37981250Y-111312500D02*
X37953750Y-111340000D01*
X38706250Y-111312500D02*
X37981250Y-111312500D01*
X24710000Y-111340000D02*
X21460000Y-108090000D01*
X37953750Y-111340000D02*
X24710000Y-111340000D01*
X60468750Y-99655000D02*
X60468750Y-102531250D01*
X61912500Y-103975000D02*
X61912500Y-107762500D01*
X60468750Y-102531250D02*
X61912500Y-103975000D01*
X84281250Y-99655000D02*
X84281250Y-102281250D01*
X85725000Y-103725000D02*
X85725000Y-107762500D01*
X84281250Y-102281250D02*
X85725000Y-103725000D01*
X155618750Y-99695000D02*
X155618750Y-102618750D01*
X157162500Y-104162500D02*
X157162500Y-107762500D01*
X155618750Y-102618750D02*
X157162500Y-104162500D01*
X227156250Y-99655000D02*
X227156250Y-102843750D01*
X228600000Y-104287500D02*
X228600000Y-107762500D01*
X227156250Y-102843750D02*
X228600000Y-104287500D01*
X250968750Y-99655000D02*
X250968750Y-102968750D01*
X252412500Y-104412500D02*
X252412500Y-107762500D01*
X250968750Y-102968750D02*
X252412500Y-104412500D01*
X281925000Y-99655000D02*
X281925000Y-102925000D01*
X283368750Y-104368750D02*
X283368750Y-107762500D01*
X281925000Y-102925000D02*
X283368750Y-104368750D01*
X300975000Y-99655000D02*
X300975000Y-102975000D01*
X302418750Y-104418750D02*
X302418750Y-107762500D01*
X300975000Y-102975000D02*
X302418750Y-104418750D01*
X320025000Y-99655000D02*
X320025000Y-101975000D01*
X321468750Y-103418750D02*
X321468750Y-107762500D01*
X320025000Y-101975000D02*
X321468750Y-103418750D01*
D18*
X169068750Y-19050000D02*
X56950000Y-19050000D01*
X55731400Y-20268600D02*
X51566750Y-20268600D01*
X56950000Y-19050000D02*
X55731400Y-20268600D01*
X43946750Y-19053250D02*
X44799980Y-18200020D01*
X43946750Y-20268600D02*
X43946750Y-19053250D01*
X44799980Y-18200020D02*
X50000000Y-18200020D01*
X50000000Y-18200020D02*
X50200020Y-18200020D01*
X50575800Y-18200020D02*
X50000000Y-18200020D01*
X51566750Y-19190970D02*
X50575800Y-18200020D01*
X51566750Y-20268600D02*
X51566750Y-19190970D01*
X43946750Y-20268600D02*
X41406750Y-20268600D01*
X46486750Y-43686750D02*
X46486750Y-51513250D01*
X46486750Y-51513250D02*
X46486750Y-51513250D01*
X51566750Y-34410970D02*
X51566750Y-35488600D01*
X52977720Y-33000000D02*
X51566750Y-34410970D01*
X169400002Y-33000000D02*
X52977720Y-33000000D01*
X171450000Y-19100000D02*
X171450000Y-20550000D01*
X171424999Y-30975003D02*
X169400002Y-33000000D01*
X171424999Y-20575001D02*
X171424999Y-30975003D01*
X171450000Y-20550000D02*
X171424999Y-20575001D01*
D17*
X21900000Y-45000000D02*
X26000000Y-45000000D01*
X21000000Y-45000000D02*
X21900000Y-45000000D01*
X19650010Y-43650010D02*
X21000000Y-45000000D01*
X19650010Y-30349990D02*
X19650010Y-43650010D01*
X21575000Y-25995000D02*
X21575000Y-28425000D01*
X21575000Y-28425000D02*
X19650010Y-30349990D01*
X34918749Y-31085003D02*
X34918749Y-34080599D01*
X34918749Y-34080599D02*
X36326750Y-35488600D01*
X37000000Y-29003752D02*
X34918749Y-31085003D01*
X37779749Y-22779749D02*
X37000000Y-23559498D01*
X39953751Y-25323751D02*
X39953751Y-19746839D01*
X37000000Y-23559498D02*
X37000000Y-29003752D01*
X40625000Y-25995000D02*
X39953751Y-25323751D01*
X39953751Y-19746839D02*
X39206912Y-19000000D01*
X39206912Y-19000000D02*
X38000000Y-19000000D01*
X38000000Y-19000000D02*
X37779749Y-19220251D01*
X37779749Y-19220251D02*
X37779749Y-22779749D01*
X64437500Y-85766002D02*
X64437500Y-83145000D01*
X68671498Y-90000000D02*
X64437500Y-85766002D01*
X194000000Y-90000000D02*
X68671498Y-90000000D01*
X197000000Y-87000000D02*
X194000000Y-90000000D01*
X197787500Y-83145000D02*
X197000000Y-83932500D01*
X197000000Y-83932500D02*
X197000000Y-87000000D01*
X216837500Y-87582500D02*
X216837500Y-83145000D01*
X213590000Y-90830000D02*
X216837500Y-87582500D01*
X207550000Y-90830000D02*
X213590000Y-90830000D01*
X82985000Y-90815000D02*
X207535000Y-90815000D01*
X207535000Y-90815000D02*
X207550000Y-90830000D01*
X57500000Y-37500000D02*
X59000000Y-36000000D01*
X36500000Y-37500000D02*
X57500000Y-37500000D01*
X35250599Y-36250599D02*
X36500000Y-37500000D01*
X33786750Y-35488600D02*
X34548749Y-36250599D01*
X34548749Y-36250599D02*
X35250599Y-36250599D01*
X105130000Y-91750000D02*
X106110000Y-91750000D01*
X106572501Y-91287499D02*
X233712501Y-91287499D01*
X106110000Y-91750000D02*
X106572501Y-91287499D01*
X233712501Y-91287499D02*
X235000000Y-90000000D01*
X76049990Y-37950010D02*
X77000000Y-37000000D01*
X35611749Y-37950009D02*
X76049990Y-37950010D01*
X35361720Y-37699980D02*
X35611749Y-37950009D01*
X31246750Y-35488600D02*
X33458130Y-37699980D01*
X33458130Y-37699980D02*
X35361720Y-37699980D01*
X121000000Y-83000000D02*
X121000000Y-79000000D01*
X121220001Y-78779999D02*
X121220001Y-77779999D01*
X121000000Y-79000000D02*
X121220001Y-78779999D01*
X121220001Y-77779999D02*
X124000000Y-75000000D01*
X124000000Y-75000000D02*
X241000000Y-75000000D01*
X241000000Y-75000000D02*
X243000000Y-75000000D01*
X93200020Y-38400020D02*
X93200020Y-38400020D01*
X35236430Y-38400020D02*
X92634335Y-38400020D01*
X35086401Y-38249991D02*
X35236430Y-38400020D01*
X92634335Y-38400020D02*
X93200020Y-38400020D01*
X31468141Y-38249991D02*
X35086401Y-38249991D01*
X28706750Y-35488600D02*
X31468141Y-38249991D01*
X140000000Y-79000000D02*
X140000000Y-83000000D01*
X143000000Y-76000000D02*
X140000000Y-79000000D01*
X277000000Y-76000000D02*
X273824752Y-76000000D01*
X279000000Y-74000000D02*
X277000000Y-76000000D01*
X273824752Y-76000000D02*
X272584751Y-77240001D01*
X272584751Y-77240001D02*
X270352749Y-77240001D01*
X270352749Y-77240001D02*
X269112748Y-76000000D01*
X269112748Y-76000000D02*
X143000000Y-76000000D01*
X92577028Y-38850030D02*
X92852019Y-39125021D01*
X35050030Y-38850030D02*
X92577028Y-38850030D01*
X26166750Y-35488600D02*
X26166750Y-36566230D01*
X28220520Y-38620000D02*
X31201740Y-38620000D01*
X92852019Y-39125021D02*
X93548021Y-39125021D01*
X31201740Y-38620000D02*
X31281741Y-38700001D01*
X31281741Y-38700001D02*
X34900001Y-38700001D01*
X94673042Y-38000000D02*
X115000000Y-38000000D01*
X93548021Y-39125021D02*
X94673042Y-38000000D01*
X26166750Y-36566230D02*
X28220520Y-38620000D01*
X34900001Y-38700001D02*
X35050030Y-38850030D01*
X288000000Y-82870000D02*
X288275000Y-83145000D01*
X288000000Y-80000000D02*
X288000000Y-82870000D01*
X159687500Y-83145000D02*
X159687500Y-79312500D01*
X272771151Y-77690012D02*
X273221161Y-77240001D01*
X273221161Y-77240001D02*
X285240001Y-77240001D01*
X269716339Y-77240001D02*
X270166349Y-77690012D01*
X161759999Y-77240001D02*
X269716339Y-77240001D01*
X159687500Y-79312500D02*
X161759999Y-77240001D01*
X285240001Y-77240001D02*
X288000000Y-80000000D01*
X270166349Y-77690012D02*
X272771151Y-77690012D01*
X34713601Y-39150011D02*
X34863630Y-39300040D01*
X31095341Y-39150011D02*
X34713601Y-39150011D01*
X23626750Y-36566230D02*
X26000520Y-38940000D01*
X23626750Y-35488600D02*
X23626750Y-36566230D01*
X26000520Y-38940000D02*
X27904110Y-38940000D01*
X27904110Y-38940000D02*
X28034120Y-39070010D01*
X28034120Y-39070010D02*
X31015340Y-39070010D01*
X31015340Y-39070010D02*
X31095341Y-39150011D01*
X94009412Y-39300040D02*
X123563630Y-39300040D01*
X93734422Y-39575030D02*
X94009412Y-39300040D01*
X92665619Y-39575031D02*
X93734422Y-39575030D01*
X34863630Y-39300040D02*
X92390628Y-39300040D01*
X92390628Y-39300040D02*
X92665619Y-39575031D01*
X123563630Y-39300040D02*
X130640040Y-39300040D01*
X130640040Y-39300040D02*
X130640040Y-39300040D01*
X26166750Y-18833250D02*
X26166750Y-20268600D01*
X27374990Y-17625010D02*
X26166750Y-18833250D01*
X303625010Y-17625010D02*
X27374990Y-17625010D01*
X307000000Y-26000000D02*
X307000000Y-21000000D01*
X307000000Y-21000000D02*
X303625010Y-17625010D01*
D18*
X43946750Y-43656750D02*
X43946750Y-52446750D01*
D17*
X43946750Y-52446750D02*
X43946750Y-52446750D01*
M02*
