M48
; DRILL file {KiCad (5.1.4)-1} date 2021/12/30 21:44:00
; FORMAT={-:-/ absolute / inch / decimal}
; #@! TF.CreationDate,2021-12-30T21:44:00+09:00
; #@! TF.GenerationSoftware,Kicad,Pcbnew,(5.1.4)-1
; #@! TF.FileFunction,NonPlated,1,2,NPTH
FMAT,2
INCH
T1C0.0709
T2C0.0787
T3C0.1181
T4C0.1201
T5C0.1575
%
G90
G05
T1
X1.3938Y-3.375
X1.7937Y-3.375
X10.9562Y-2.625
X11.3562Y-2.625
X11.05Y-1.125
X11.45Y-1.125
X5.7062Y-4.125
X6.1063Y-4.125
T2
X8.05Y-1.875
X8.45Y-1.875
X5.2375Y-2.625
X5.6375Y-2.625
X11.425Y-4.125
X11.825Y-4.125
X4.3Y-1.875
X4.7Y-1.875
X8.6125Y-3.375
X9.0125Y-3.375
X3.7375Y-2.625
X4.1375Y-2.625
X8.425Y-1.125
X8.825Y-1.125
X1.0188Y-4.125
X1.4187Y-4.125
X6.7375Y-2.625
X7.1375Y-2.625
X10.675Y-4.125
X11.075Y-4.125
X4.675Y-1.125
X5.075Y-1.125
X7.8625Y-3.375
X8.2625Y-3.375
X11.2375Y-1.875
X11.6375Y-1.875
X1.1125Y-1.875
X1.5125Y-1.875
X6.55Y-1.875
X6.95Y-1.875
X1.9563Y-4.125
X2.3562Y-4.125
X9.55Y-1.875
X9.95Y-1.875
X2.8937Y-4.125
X3.2937Y-4.125
X9.175Y-1.125
X9.575Y-1.125
X1.675Y-1.125
X2.075Y-1.125
X5.425Y-1.125
X5.825Y-1.125
X7.4875Y-2.625
X7.8875Y-2.625
X7.3Y-1.875
X7.7Y-1.875
X2.425Y-1.125
X2.825Y-1.125
X12.175Y-1.875
X12.575Y-1.875
X3.55Y-1.875
X3.95Y-1.875
X9.7375Y-2.625
X10.1375Y-2.625
X2.9875Y-2.625
X3.3875Y-2.625
X4.1125Y-3.375
X4.5125Y-3.375
X2.8Y-1.875
X3.2Y-1.875
X11.425Y-3.375
X11.825Y-3.375
X2.2375Y-2.625
X2.6375Y-2.625
X3.925Y-1.125
X4.325Y-1.125
X4.8625Y-3.375
X5.2625Y-3.375
X10.3Y-1.875
X10.7Y-1.875
X8.5187Y-4.125
X8.9187Y-4.125
X2.6125Y-3.375
X3.0125Y-3.375
X9.925Y-1.125
X10.325Y-1.125
X3.3625Y-3.375
X3.7625Y-3.375
X5.05Y-1.875
X5.45Y-1.875
X9.3625Y-3.375
X9.7625Y-3.375
X8.8Y-1.875
X9.2Y-1.875
X8.9875Y-2.625
X9.3875Y-2.625
X12.175Y-1.125
X12.575Y-1.125
X8.2375Y-2.625
X8.6375Y-2.625
X12.175Y-4.125
X12.575Y-4.125
X2.05Y-1.875
X2.45Y-1.875
X7.1125Y-3.375
X7.5125Y-3.375
X1.2063Y-2.625
X1.6062Y-2.625
X0.925Y-1.125
X1.325Y-1.125
X7.675Y-1.125
X8.075Y-1.125
X10.3937Y-3.375
X10.7937Y-3.375
X5.9875Y-2.625
X6.3875Y-2.625
X9.4562Y-4.125
X9.8562Y-4.125
X3.175Y-1.125
X3.575Y-1.125
X5.6125Y-3.375
X6.0125Y-3.375
X4.4875Y-2.625
X4.8875Y-2.625
X6.925Y-1.125
X7.325Y-1.125
X12.175Y-3.375
X12.575Y-3.375
X6.175Y-1.125
X6.575Y-1.125
X12.175Y-2.625
X12.575Y-2.625
X5.8Y-1.875
X6.2Y-1.875
X6.3625Y-3.375
X6.7625Y-3.375
T3
X3.225Y-1.025
X3.475Y-0.925
X5.6625Y-3.275
X5.9125Y-3.175
X4.5375Y-2.525
X4.7875Y-2.425
X5.7562Y-4.025
X6.0062Y-3.925
X6.975Y-1.025
X7.225Y-0.925
X12.225Y-3.275
X12.475Y-3.175
X6.225Y-1.025
X6.475Y-0.925
X12.225Y-2.525
X12.475Y-2.425
X5.85Y-1.775
X6.1Y-1.675
X6.4125Y-3.275
X6.6625Y-3.175
X8.1Y-1.775
X8.35Y-1.675
X5.2875Y-2.525
X5.5375Y-2.425
X11.475Y-4.025
X11.725Y-3.925
X4.35Y-1.775
X4.6Y-1.675
X8.6625Y-3.275
X8.9125Y-3.175
X3.7875Y-2.525
X4.0375Y-2.425
X8.475Y-1.025
X8.725Y-0.925
X1.0687Y-4.025
X1.3187Y-3.925
X6.7875Y-2.525
X7.0375Y-2.425
X10.725Y-4.025
X10.975Y-3.925
X4.725Y-1.025
X4.975Y-0.925
X7.9125Y-3.275
X8.1625Y-3.175
X11.2875Y-1.775
X11.5375Y-1.675
X1.1625Y-1.775
X1.4125Y-1.675
X6.6Y-1.775
X6.85Y-1.675
X2.0063Y-4.025
X2.2563Y-3.925
X9.6Y-1.775
X9.85Y-1.675
X2.9438Y-4.025
X3.1938Y-3.925
X9.225Y-1.025
X9.475Y-0.925
X1.4437Y-3.275
X1.6937Y-3.175
X1.725Y-1.025
X1.975Y-0.925
X5.475Y-1.025
X5.725Y-0.925
X11.0062Y-2.525
X11.2562Y-2.425
X7.5375Y-2.525
X7.7875Y-2.425
X7.35Y-1.775
X7.6Y-1.675
X2.475Y-1.025
X2.725Y-0.925
X12.225Y-1.775
X12.475Y-1.675
X3.6Y-1.775
X3.85Y-1.675
X9.7875Y-2.525
X10.0375Y-2.425
X3.0375Y-2.525
X3.2875Y-2.425
X4.1625Y-3.275
X4.4125Y-3.175
X2.85Y-1.775
X3.1Y-1.675
X11.475Y-3.275
X11.725Y-3.175
X2.2875Y-2.525
X2.5375Y-2.425
X3.975Y-1.025
X4.225Y-0.925
X4.9125Y-3.275
X5.1625Y-3.175
X10.35Y-1.775
X10.6Y-1.675
X8.5687Y-4.025
X8.8187Y-3.925
X11.1Y-1.025
X11.35Y-0.925
X2.6625Y-3.275
X2.9125Y-3.175
X9.975Y-1.025
X10.225Y-0.925
X3.4125Y-3.275
X3.6625Y-3.175
X5.1Y-1.775
X5.35Y-1.675
X9.4125Y-3.275
X9.6625Y-3.175
X8.85Y-1.775
X9.1Y-1.675
X9.0375Y-2.525
X9.2875Y-2.425
X12.225Y-1.025
X12.475Y-0.925
X8.2875Y-2.525
X8.5375Y-2.425
X12.225Y-4.025
X12.475Y-3.925
X2.1Y-1.775
X2.35Y-1.675
X7.1625Y-3.275
X7.4125Y-3.175
X1.2562Y-2.525
X1.5062Y-2.425
X0.975Y-1.025
X1.225Y-0.925
X7.725Y-1.025
X7.975Y-0.925
X10.4437Y-3.275
X10.6937Y-3.175
X6.0375Y-2.525
X6.2875Y-2.425
X9.5062Y-4.025
X9.7562Y-3.925
T4
X1.1252Y-3.0994
X2.0623Y-3.0994
X10.6877Y-2.3494
X11.6248Y-2.3494
X10.7815Y-0.8494
X11.7185Y-0.8494
X3.9374Y-4.4006
X7.8751Y-4.4006
T5
X7.5Y-1.875
X2.625Y-1.125
X12.375Y-1.875
X3.75Y-1.875
X9.9375Y-2.625
X3.1875Y-2.625
X4.3125Y-3.375
X3.0Y-1.875
X11.625Y-3.375
X2.4375Y-2.625
X4.125Y-1.125
X5.0625Y-3.375
X10.5Y-1.875
X8.7188Y-4.125
X10.7815Y-1.4494
X11.25Y-1.125
X11.7185Y-1.4494
X2.8125Y-3.375
X10.125Y-1.125
X3.5625Y-3.375
X5.25Y-1.875
X9.5625Y-3.375
X9.0Y-1.875
X9.1875Y-2.625
X12.375Y-1.125
X8.4375Y-2.625
X12.375Y-4.125
X2.25Y-1.875
X7.3125Y-3.375
X1.4062Y-2.625
X1.125Y-1.125
X7.875Y-1.125
X10.5938Y-3.375
X6.1875Y-2.625
X9.6562Y-4.125
X3.375Y-1.125
X5.8125Y-3.375
X4.6875Y-2.625
X3.9374Y-3.8006
X5.9062Y-4.125
X7.8751Y-3.8006
X7.125Y-1.125
X12.375Y-3.375
X6.375Y-1.125
X12.375Y-2.625
X6.0Y-1.875
X6.5625Y-3.375
X8.25Y-1.875
X5.4375Y-2.625
X11.625Y-4.125
X4.5Y-1.875
X8.8125Y-3.375
X3.9375Y-2.625
X8.625Y-1.125
X1.2188Y-4.125
X6.9375Y-2.625
X10.875Y-4.125
X4.875Y-1.125
X8.0625Y-3.375
X11.4375Y-1.875
X1.3125Y-1.875
X6.75Y-1.875
X2.1562Y-4.125
X9.75Y-1.875
X3.0938Y-4.125
X9.375Y-1.125
X1.1252Y-3.6994
X1.5938Y-3.375
X2.0623Y-3.6994
X1.875Y-1.125
X5.625Y-1.125
X10.6877Y-2.9494
X11.1562Y-2.625
X11.6248Y-2.9494
X7.6875Y-2.625
T0
M30
